<svg version="1.1" xmlns="http://www.w3.org/2000/svg" viewBox="0 0 2798.6698914109634 1441.6769846920733" width="2798.6698914109634" height="1441.6769846920733" filter="invert(93%) hue-rotate(180deg)">
  <!-- svg-source:excalidraw -->
  
  <defs>
    <style>
      @font-face {
        font-family: "Virgil";
        src: url("https://excalidraw.com/Virgil.woff2");
      }
      @font-face {
        font-family: "Cascadia";
        src: url("https://excalidraw.com/Cascadia.woff2");
      }
    </style>
  </defs>
  <rect x="0" y="0" width="2798.6698914109634" height="1441.6769846920733" fill="#ffffff"></rect><g stroke-linecap="round" transform="translate(503.78760744209103 212.2212376947291) rotate(0 1142.4411419844362 388.58937803051504)"><path d="M0.22 -0.32 C773.44 5.77, 1547.13 5.69, 2285.61 0.47 M0.11 -0.1 C688.9 -1.79, 1377.61 -2.07, 2284.73 -0.14 M2284.61 0.59 C2282 295.63, 2281.41 591.57, 2284.82 777.57 M2285.04 -0.2 C2287 244.07, 2286.86 488.18, 2285.18 777.51 M2285.15 776.4 C1430.09 783.56, 576.97 784.46, -0.27 777 M2285.06 777.38 C1409.13 772.65, 533 772.66, -0.39 777.11 M0.61 777.66 C-0.63 615.38, -0.71 453.1, 0.45 -0.45 M-0.27 777.44 C-2.97 510.12, -2.8 242.8, 0.04 -0.22" stroke="#000000" stroke-width="2" fill="none"></path></g><g transform="translate(531.6973417757749 232.2044233489387) rotate(0 36 13)"><text x="0" y="18" font-family="Virgil, Segoe UI Emoji" font-size="20px" fill="#000000" text-anchor="start" style="white-space: pre;" direction="ltr">delivery</text></g><g transform="translate(10 215.02920222052035) rotate(0 220 600.5)"><text x="0" y="18.108695652173914" font-family="Virgil, Segoe UI Emoji" font-size="20px" fill="#000000" text-anchor="start" style="white-space: pre;" direction="ltr">siparis</text><text x="0" y="44.21739130434783" font-family="Virgil, Segoe UI Emoji" font-size="20px" fill="#000000" text-anchor="start" style="white-space: pre;" direction="ltr">paket/ler</text><text x="0" y="70.32608695652175" font-family="Virgil, Segoe UI Emoji" font-size="20px" fill="#000000" text-anchor="start" style="white-space: pre;" direction="ltr">teslimat</text><text x="0" y="96.43478260869566" font-family="Virgil, Segoe UI Emoji" font-size="20px" fill="#000000" text-anchor="start" style="white-space: pre;" direction="ltr"></text><text x="0" y="122.54347826086956" font-family="Virgil, Segoe UI Emoji" font-size="20px" fill="#000000" text-anchor="start" style="white-space: pre;" direction="ltr">siparis: paketlerden ve teslimatlardan olusur</text><text x="0" y="148.6521739130435" font-family="Virgil, Segoe UI Emoji" font-size="20px" fill="#000000" text-anchor="start" style="white-space: pre;" direction="ltr">paket: urun iceriginden olusur 1-1</text><text x="0" y="174.7608695652174" font-family="Virgil, Segoe UI Emoji" font-size="20px" fill="#000000" text-anchor="start" style="white-space: pre;" direction="ltr">teslimat: paket/ler iceriginden olusur</text><text x="0" y="200.8695652173913" font-family="Virgil, Segoe UI Emoji" font-size="20px" fill="#000000" text-anchor="start" style="white-space: pre;" direction="ltr"></text><text x="0" y="226.97826086956522" font-family="Virgil, Segoe UI Emoji" font-size="20px" fill="#000000" text-anchor="start" style="white-space: pre;" direction="ltr">-----------------------</text><text x="0" y="253.08695652173913" font-family="Virgil, Segoe UI Emoji" font-size="20px" fill="#000000" text-anchor="start" style="white-space: pre;" direction="ltr"></text><text x="0" y="279.19565217391306" font-family="Virgil, Segoe UI Emoji" font-size="20px" fill="#000000" text-anchor="start" style="white-space: pre;" direction="ltr">siparis:</text><text x="0" y="305.304347826087" font-family="Virgil, Segoe UI Emoji" font-size="20px" fill="#000000" text-anchor="start" style="white-space: pre;" direction="ltr">    no: 19872903689</text><text x="0" y="331.4130434782609" font-family="Virgil, Segoe UI Emoji" font-size="20px" fill="#000000" text-anchor="start" style="white-space: pre;" direction="ltr">    adres:</text><text x="0" y="357.5217391304348" font-family="Virgil, Segoe UI Emoji" font-size="20px" fill="#000000" text-anchor="start" style="white-space: pre;" direction="ltr">    kullanici:</text><text x="0" y="383.6304347826087" font-family="Virgil, Segoe UI Emoji" font-size="20px" fill="#000000" text-anchor="start" style="white-space: pre;" direction="ltr">    ...</text><text x="0" y="409.7391304347826" font-family="Virgil, Segoe UI Emoji" font-size="20px" fill="#000000" text-anchor="start" style="white-space: pre;" direction="ltr">    audit: zaman vs</text><text x="0" y="435.84782608695656" font-family="Virgil, Segoe UI Emoji" font-size="20px" fill="#000000" text-anchor="start" style="white-space: pre;" direction="ltr">    status: siparis statuleri</text><text x="0" y="461.95652173913044" font-family="Virgil, Segoe UI Emoji" font-size="20px" fill="#000000" text-anchor="start" style="white-space: pre;" direction="ltr">    teslimatlar:</text><text x="0" y="488.0652173913044" font-family="Virgil, Segoe UI Emoji" font-size="20px" fill="#000000" text-anchor="start" style="white-space: pre;" direction="ltr">        -teslimat:</text><text x="0" y="514.1739130434783" font-family="Virgil, Segoe UI Emoji" font-size="20px" fill="#000000" text-anchor="start" style="white-space: pre;" direction="ltr">            no: 980712039</text><text x="0" y="540.2826086956522" font-family="Virgil, Segoe UI Emoji" font-size="20px" fill="#000000" text-anchor="start" style="white-space: pre;" direction="ltr">            status: takip statuleri</text><text x="0" y="566.3913043478261" font-family="Virgil, Segoe UI Emoji" font-size="20px" fill="#000000" text-anchor="start" style="white-space: pre;" direction="ltr">            audit: zaman vs</text><text x="0" y="592.5" font-family="Virgil, Segoe UI Emoji" font-size="20px" fill="#000000" text-anchor="start" style="white-space: pre;" direction="ltr">            kargo: </text><text x="0" y="618.608695652174" font-family="Virgil, Segoe UI Emoji" font-size="20px" fill="#000000" text-anchor="start" style="white-space: pre;" direction="ltr">                firma: YK</text><text x="0" y="644.7173913043479" font-family="Virgil, Segoe UI Emoji" font-size="20px" fill="#000000" text-anchor="start" style="white-space: pre;" direction="ltr">                takipNo: 98120808</text><text x="0" y="670.8260869565217" font-family="Virgil, Segoe UI Emoji" font-size="20px" fill="#000000" text-anchor="start" style="white-space: pre;" direction="ltr">            paketler:</text><text x="0" y="696.9347826086956" font-family="Virgil, Segoe UI Emoji" font-size="20px" fill="#000000" text-anchor="start" style="white-space: pre;" direction="ltr">                -paket:</text><text x="0" y="723.0434782608696" font-family="Virgil, Segoe UI Emoji" font-size="20px" fill="#000000" text-anchor="start" style="white-space: pre;" direction="ltr">                    no: 796129837</text><text x="0" y="749.1521739130435" font-family="Virgil, Segoe UI Emoji" font-size="20px" fill="#000000" text-anchor="start" style="white-space: pre;" direction="ltr">                    desi: 123</text><text x="0" y="775.2608695652174" font-family="Virgil, Segoe UI Emoji" font-size="20px" fill="#000000" text-anchor="start" style="white-space: pre;" direction="ltr">                    ...:</text><text x="0" y="801.3695652173914" font-family="Virgil, Segoe UI Emoji" font-size="20px" fill="#000000" text-anchor="start" style="white-space: pre;" direction="ltr">                -paket:</text><text x="0" y="827.4782608695652" font-family="Virgil, Segoe UI Emoji" font-size="20px" fill="#000000" text-anchor="start" style="white-space: pre;" direction="ltr">                    no: 796129837</text><text x="0" y="853.5869565217391" font-family="Virgil, Segoe UI Emoji" font-size="20px" fill="#000000" text-anchor="start" style="white-space: pre;" direction="ltr">                    desi: 123</text><text x="0" y="879.6956521739131" font-family="Virgil, Segoe UI Emoji" font-size="20px" fill="#000000" text-anchor="start" style="white-space: pre;" direction="ltr">                    ...</text><text x="0" y="905.804347826087" font-family="Virgil, Segoe UI Emoji" font-size="20px" fill="#000000" text-anchor="start" style="white-space: pre;" direction="ltr">        -teslimat:</text><text x="0" y="931.9130434782609" font-family="Virgil, Segoe UI Emoji" font-size="20px" fill="#000000" text-anchor="start" style="white-space: pre;" direction="ltr">            no: 980712039</text><text x="0" y="958.0217391304349" font-family="Virgil, Segoe UI Emoji" font-size="20px" fill="#000000" text-anchor="start" style="white-space: pre;" direction="ltr">            status: takip statuleri</text><text x="0" y="984.1304347826087" font-family="Virgil, Segoe UI Emoji" font-size="20px" fill="#000000" text-anchor="start" style="white-space: pre;" direction="ltr">            audit: zaman vs</text><text x="0" y="1010.2391304347826" font-family="Virgil, Segoe UI Emoji" font-size="20px" fill="#000000" text-anchor="start" style="white-space: pre;" direction="ltr">            kargo: </text><text x="0" y="1036.3478260869565" font-family="Virgil, Segoe UI Emoji" font-size="20px" fill="#000000" text-anchor="start" style="white-space: pre;" direction="ltr">                firma: Aras</text><text x="0" y="1062.4565217391305" font-family="Virgil, Segoe UI Emoji" font-size="20px" fill="#000000" text-anchor="start" style="white-space: pre;" direction="ltr">                takipNo: 98120808</text><text x="0" y="1088.5652173913045" font-family="Virgil, Segoe UI Emoji" font-size="20px" fill="#000000" text-anchor="start" style="white-space: pre;" direction="ltr">            paketler:</text><text x="0" y="1114.6739130434783" font-family="Virgil, Segoe UI Emoji" font-size="20px" fill="#000000" text-anchor="start" style="white-space: pre;" direction="ltr">                -paket:</text><text x="0" y="1140.7826086956522" font-family="Virgil, Segoe UI Emoji" font-size="20px" fill="#000000" text-anchor="start" style="white-space: pre;" direction="ltr">                    no: 796129837</text><text x="0" y="1166.8913043478262" font-family="Virgil, Segoe UI Emoji" font-size="20px" fill="#000000" text-anchor="start" style="white-space: pre;" direction="ltr">                    desi: 123</text><text x="0" y="1193" font-family="Virgil, Segoe UI Emoji" font-size="20px" fill="#000000" text-anchor="start" style="white-space: pre;" direction="ltr">                    ...</text></g><g stroke-linecap="round"><g transform="translate(1104.9642494567179 28.635240571069062) rotate(0 2.855131045574808 73.82467884240111)"><path d="M0.39 -0.32 C1.31 24.25, 5.54 123.25, 6.57 147.82 M-0.86 -1.54 C-0.22 23.18, 4.4 124.29, 5.49 149.19" stroke="#000000" stroke-width="2" fill="none"></path></g><g transform="translate(1104.9642494567179 28.635240571069062) rotate(0 2.855131045574808 73.82467884240111)"><path d="M-6.55 121.08 C-1.97 131.9, 1.34 143.18, 3.87 148.44 M-5.13 121.92 C-3.28 130.4, 1.86 140.15, 5.87 150.05" stroke="#000000" stroke-width="2" fill="none"></path></g><g transform="translate(1104.9642494567179 28.635240571069062) rotate(0 2.855131045574808 73.82467884240111)"><path d="M13.95 120.16 C10.52 131.41, 5.81 143.05, 3.87 148.44 M15.37 121 C10.56 129.88, 9.04 139.92, 5.87 150.05" stroke="#000000" stroke-width="2" fill="none"></path></g></g><g transform="translate(1154.2991076810208 10) rotate(0 102.5 78.5)"><text x="0" y="18.166666666666668" font-family="Virgil, Segoe UI Emoji" font-size="20px" fill="#000000" text-anchor="start" style="white-space: pre;" direction="ltr">Odeme alindi eventi</text><text x="0" y="44.333333333333336" font-family="Virgil, Segoe UI Emoji" font-size="20px" fill="#000000" text-anchor="start" style="white-space: pre;" direction="ltr">- Siparis detaylari</text><text x="0" y="70.5" font-family="Virgil, Segoe UI Emoji" font-size="20px" fill="#000000" text-anchor="start" style="white-space: pre;" direction="ltr">    - urun bilgileri</text><text x="0" y="96.66666666666667" font-family="Virgil, Segoe UI Emoji" font-size="20px" fill="#000000" text-anchor="start" style="white-space: pre;" direction="ltr">    - kullanici bilgileri</text><text x="0" y="122.83333333333334" font-family="Virgil, Segoe UI Emoji" font-size="20px" fill="#000000" text-anchor="start" style="white-space: pre;" direction="ltr">    - satici bilgileri</text><text x="0" y="149" font-family="Virgil, Segoe UI Emoji" font-size="20px" fill="#000000" text-anchor="start" style="white-space: pre;" direction="ltr">    </text></g><g stroke-linecap="round" transform="translate(546.7256602631464 489.1716783905131) rotate(0 174.5 98.5)"><path d="M-0.91 0.48 C109.69 -1.61, 219.77 -1.45, 349.5 0.55 M0.48 0.16 C72.95 -1.48, 145.48 -2.48, 348.48 0.57 M348.89 -1.26 C346.88 68.54, 349.14 139.91, 348.97 197.3 M349.49 -0.62 C350.11 48.41, 349.37 96.41, 348.31 197.55 M350.26 197.3 C243.27 195.2, 138.96 195.78, 0.51 196.94 M349.6 196.62 C250.7 198.69, 153.29 198.12, -0.07 197.63 M1.5 195.33 C-0.04 144.99, -0.35 96.03, -0.95 0.37 M0.8 196.39 C-1.81 137.05, -1.68 77.8, 0.93 -0.21" stroke="#000000" stroke-width="2" fill="none"></path></g><g transform="translate(551.7256602631464 575.6716783905131) rotate(0 169.5 12)"><text x="169.5" y="17" font-family="Virgil, Segoe UI Emoji" font-size="20px" fill="#000000" text-anchor="middle" style="white-space: pre;" direction="ltr">dispatcher-api</text></g><g stroke-linecap="round" transform="translate(552.0929168657799 729.6247741883972) rotate(0 45.08495546210406 48.30530942368296)"><path d="M65.27 6.04 C72.3 9.31, 79.83 16.14, 83.83 23.61 C87.83 31.08, 89.65 42.08, 89.25 50.85 C88.86 59.63, 86.19 69.2, 81.48 76.25 C76.77 83.31, 68.53 90.02, 60.99 93.16 C53.45 96.3, 44.08 96.94, 36.24 95.08 C28.4 93.23, 19.84 87.97, 13.94 82.04 C8.04 76.1, 2.87 67.87, 0.85 59.48 C-1.18 51.09, -0.86 39.93, 1.79 31.72 C4.43 23.51, 10.15 15.58, 16.71 10.21 C23.27 4.84, 32.6 0.06, 41.14 -0.5 C49.68 -1.06, 63.24 5.37, 67.97 6.86 C72.69 8.35, 69.85 7.81, 69.5 8.44 M63.61 4.47 C70.96 7.26, 79.88 15.59, 84.08 22.98 C88.28 30.36, 89.16 40.08, 88.8 48.78 C88.45 57.49, 86.48 67.64, 81.94 75.21 C77.4 82.78, 68.9 90.68, 61.55 94.22 C54.2 97.75, 45.74 98.4, 37.86 96.45 C29.99 94.49, 20.44 88.46, 14.3 82.47 C8.15 76.49, 3.12 68.64, 0.97 60.54 C-1.17 52.43, -0.96 42.16, 1.44 33.85 C3.84 25.53, 8.99 16.46, 15.36 10.66 C21.73 4.86, 31.4 -0.03, 39.67 -0.97 C47.94 -1.91, 60.6 3.93, 64.98 5.01 C69.36 6.09, 66.08 4.92, 65.94 5.51" stroke="#000000" stroke-width="2" fill="none"></path></g><g transform="translate(557.0929168657799 764.9300836120792) rotate(0 40 12)"><text x="40" y="17" font-family="Virgil, Segoe UI Emoji" font-size="20px" fill="#000000" text-anchor="middle" style="white-space: pre;" direction="ltr">YK</text></g><g stroke-linecap="round" transform="translate(679.8336240084077 731.7716768294513) rotate(0 45.08495546210406 48.30530942368296)"><path d="M64.63 5.32 C71.87 8.38, 80.05 15.86, 84.16 23.24 C88.28 30.61, 89.81 40.71, 89.33 49.57 C88.85 58.44, 85.71 69.09, 81.3 76.43 C76.9 83.76, 70.44 90.36, 62.91 93.59 C55.39 96.82, 44.22 97.54, 36.14 95.81 C28.05 94.08, 20.36 89.14, 14.4 83.21 C8.43 77.29, 2.43 68.6, 0.33 60.25 C-1.76 51.91, -0.95 41.49, 1.84 33.14 C4.63 24.8, 10.56 15.75, 17.06 10.18 C23.57 4.62, 32 0.29, 40.85 -0.27 C49.7 -0.84, 64.87 4.99, 70.15 6.8 C75.44 8.61, 73.27 9.95, 72.58 10.58 M38.31 -0.59 C45.78 -2.18, 56 0.06, 63.33 4.1 C70.66 8.15, 77.78 16.02, 82.31 23.69 C86.85 31.36, 90.29 41.41, 90.53 50.11 C90.78 58.82, 88.36 69.04, 83.8 75.91 C79.24 82.78, 70.76 87.92, 63.18 91.34 C55.59 94.76, 46.42 97.45, 38.28 96.45 C30.14 95.45, 20.27 91.08, 14.33 85.33 C8.39 79.58, 4.8 70.6, 2.62 61.94 C0.45 53.28, -0.92 41.86, 1.3 33.38 C3.53 24.89, 9.56 16.7, 15.98 11.02 C22.41 5.34, 35.83 0.71, 39.85 -0.72 C43.88 -2.16, 40.14 1.47, 40.14 2.42" stroke="#000000" stroke-width="2" fill="none"></path></g><g transform="translate(684.8336240084077 768.0769862531333) rotate(0 40 12)"><text x="40" y="17" font-family="Virgil, Segoe UI Emoji" font-size="20px" fill="#000000" text-anchor="middle" style="white-space: pre;" direction="ltr">ARAS</text></g><g stroke-linecap="round" transform="translate(804.353977189457 732.8451281499756) rotate(0 45.08495546210406 48.30530942368296)"><path d="M64.97 4.94 C72.24 7.92, 80.04 15.17, 84.13 22.29 C88.23 29.41, 89.69 38.84, 89.55 47.66 C89.41 56.49, 87.76 67.8, 83.31 75.25 C78.87 82.7, 70.26 88.85, 62.86 92.39 C55.46 95.92, 46.69 97.69, 38.91 96.49 C31.14 95.28, 22.42 91.09, 16.22 85.15 C10.02 79.21, 3.94 69.37, 1.71 60.86 C-0.51 52.35, 0.65 42.34, 2.86 34.09 C5.07 25.84, 9.13 16.92, 14.98 11.37 C20.83 5.82, 28.68 1.36, 37.98 0.79 C47.28 0.22, 64.65 5.87, 70.79 7.95 C76.94 10.03, 75.48 12.35, 74.85 13.26 M55.61 1.98 C62.95 3.4, 72.15 10.25, 77.97 16.76 C83.79 23.26, 89.06 32.78, 90.52 41.03 C91.99 49.28, 90.12 58.31, 86.77 66.27 C83.41 74.23, 77.1 83.91, 70.38 88.78 C63.65 93.66, 54.28 95.62, 46.4 95.52 C38.51 95.41, 30.16 92.41, 23.07 88.18 C15.98 83.95, 7.63 77.54, 3.87 70.13 C0.11 62.72, -0.62 52.35, 0.51 43.7 C1.64 35.05, 5.74 25.12, 10.65 18.23 C15.57 11.33, 22.32 4.96, 29.98 2.34 C37.64 -0.29, 52.16 2.33, 56.63 2.49 C61.11 2.64, 57 2.64, 56.85 3.29" stroke="#000000" stroke-width="2" fill="none"></path></g><g transform="translate(809.353977189457 769.1504375736577) rotate(0 40 12)"><text x="40" y="17" font-family="Virgil, Segoe UI Emoji" font-size="20px" fill="#000000" text-anchor="middle" style="white-space: pre;" direction="ltr">MNG</text></g><g transform="translate(508.0814127242029 1013.6769846920733) rotate(0 547.5 209)"><text x="0" y="18.125" font-family="Virgil, Segoe UI Emoji" font-size="20px" fill="#000000" text-anchor="start" style="white-space: pre;" direction="ltr">Dagitim Kosullari</text><text x="0" y="44.25" font-family="Virgil, Segoe UI Emoji" font-size="20px" fill="#000000" text-anchor="start" style="white-space: pre;" direction="ltr">    - Her firmanin il-ilce bir kotasi var (gunluk)</text><text x="0" y="70.375" font-family="Virgil, Segoe UI Emoji" font-size="20px" fill="#000000" text-anchor="start" style="white-space: pre;" direction="ltr">    - Her firmanin tasiyabilecegi desi araligi var</text><text x="0" y="96.5" font-family="Virgil, Segoe UI Emoji" font-size="20px" fill="#000000" text-anchor="start" style="white-space: pre;" direction="ltr">    - Her firmanin hizmet verdigi bolge bilgileri var</text><text x="0" y="122.625" font-family="Virgil, Segoe UI Emoji" font-size="20px" fill="#000000" text-anchor="start" style="white-space: pre;" direction="ltr">    - Bir saticinin anlasmis oldugu kargo firmalari var</text><text x="0" y="148.75" font-family="Virgil, Segoe UI Emoji" font-size="20px" fill="#000000" text-anchor="start" style="white-space: pre;" direction="ltr">    - Her firmanin paket basi ucreti var</text><text x="0" y="174.875" font-family="Virgil, Segoe UI Emoji" font-size="20px" fill="#000000" text-anchor="start" style="white-space: pre;" direction="ltr">    - Her firmanin il-ilce bazli dagitim hizi var</text><text x="0" y="201" font-family="Virgil, Segoe UI Emoji" font-size="20px" fill="#000000" text-anchor="start" style="white-space: pre;" direction="ltr"></text><text x="0" y="227.125" font-family="Virgil, Segoe UI Emoji" font-size="20px" fill="#000000" text-anchor="start" style="white-space: pre;" direction="ltr">1- NPS (Musteri memnuniyeti) yuksek tutmak gerek: En hizli sekilde eline ulasirsa</text><text x="0" y="253.25" font-family="Virgil, Segoe UI Emoji" font-size="20px" fill="#000000" text-anchor="start" style="white-space: pre;" direction="ltr">    - Paket desisini tasiyabilecek kargo firmalari secilir</text><text x="0" y="279.375" font-family="Virgil, Segoe UI Emoji" font-size="20px" fill="#000000" text-anchor="start" style="white-space: pre;" direction="ltr">    - Kullanicinin adresinde en hizli teslimat yapan kargo firmalari secilir</text><text x="0" y="305.5" font-family="Virgil, Segoe UI Emoji" font-size="20px" fill="#000000" text-anchor="start" style="white-space: pre;" direction="ltr">    - Kargo firmalari arasinda satici anlasmasi olan firmalar secilir/ yoksa 1. maddedeki firmalarla devam edilir</text><text x="0" y="331.625" font-family="Virgil, Segoe UI Emoji" font-size="20px" fill="#000000" text-anchor="start" style="white-space: pre;" direction="ltr">    - Kotasi olan kargo firmalari secilir</text><text x="0" y="357.75" font-family="Virgil, Segoe UI Emoji" font-size="20px" fill="#000000" text-anchor="start" style="white-space: pre;" direction="ltr">    - Kotasi olan kargo firmalarindan en fazla kotasi olana paket verilir</text><text x="0" y="383.875" font-family="Virgil, Segoe UI Emoji" font-size="20px" fill="#000000" text-anchor="start" style="white-space: pre;" direction="ltr">2- Ayni ilde olan saticilarin paketleri ayni kargo firmasina tek teslimat icinde atanir</text><text x="0" y="410" font-family="Virgil, Segoe UI Emoji" font-size="20px" fill="#000000" text-anchor="start" style="white-space: pre;" direction="ltr">    </text></g><g stroke-linecap="round" transform="translate(612.2061908152523 860.5858352926034) rotate(0 45.08495546210406 48.30530942368296)"><path d="M51.48 0.85 C59.33 1.69, 69.03 7.02, 75.28 12.7 C81.54 18.39, 86.95 26.52, 89 34.97 C91.04 43.42, 90.11 54.9, 87.54 63.42 C84.98 71.93, 79.82 80.59, 73.58 86.05 C67.35 91.52, 58.1 95.37, 50.16 96.21 C42.22 97.05, 33.03 94.93, 25.95 91.11 C18.86 87.3, 11.95 80.74, 7.64 73.32 C3.33 65.89, 0.18 55.07, 0.08 46.57 C-0.02 38.06, 2.51 29.51, 7.03 22.3 C11.55 15.09, 19.2 6.67, 27.19 3.31 C35.18 -0.05, 49.86 2.19, 54.97 2.14 C60.09 2.08, 58.04 2.21, 57.89 3 M45.31 0.39 C53.07 -0.23, 62.41 2.11, 69.27 6.82 C76.12 11.53, 82.91 20.57, 86.44 28.65 C89.97 36.72, 91.62 46.6, 90.45 55.26 C89.29 63.93, 85.04 74, 79.45 80.63 C73.86 87.26, 64.99 92.71, 56.91 95.04 C48.82 97.37, 38.82 96.99, 30.97 94.63 C23.11 92.26, 15.04 87.38, 9.77 80.85 C4.49 74.32, 0.13 64.09, -0.68 55.45 C-1.5 46.81, 1.19 37.01, 4.86 29.01 C8.52 21, 14.42 12.38, 21.29 7.43 C28.16 2.47, 42.1 0.24, 46.06 -0.72 C50.02 -1.69, 45.18 0.53, 45.04 1.64" stroke="#000000" stroke-width="2" fill="none"></path></g><g transform="translate(617.2061908152523 896.8911447162873) rotate(0 40 12)"><text x="40" y="17" font-family="Virgil, Segoe UI Emoji" font-size="20px" fill="#000000" text-anchor="middle" style="white-space: pre;" direction="ltr">HOROZ</text></g><g stroke-linecap="round" transform="translate(746.3876058810379 861.6592866131296) rotate(0 45.08495546210406 48.30530942368296)"><path d="M36 1.79 C43.26 -0.68, 53.16 -0.19, 60.58 2.65 C68 5.49, 75.67 11.89, 80.52 18.82 C85.37 25.74, 88.92 35.55, 89.69 44.2 C90.46 52.85, 89.02 63.15, 85.14 70.71 C81.25 78.26, 73.38 85.23, 66.4 89.53 C59.41 93.83, 51.27 96.97, 43.24 96.5 C35.21 96.03, 25.02 91.82, 18.22 86.73 C11.43 81.63, 5.25 74.02, 2.48 65.91 C-0.28 57.81, -0.04 46.73, 1.65 38.12 C3.34 29.5, 5.94 20.43, 12.61 14.24 C19.29 8.04, 36.03 3.28, 41.69 0.95 C47.34 -1.37, 46.49 -0.54, 46.56 0.3 M39.04 0.72 C46.8 -1.38, 56.53 1.38, 63.66 4.74 C70.79 8.1, 77.42 13.97, 81.84 20.86 C86.27 27.75, 90.16 37.46, 90.2 46.1 C90.24 54.73, 86.38 65.17, 82.06 72.67 C77.73 80.17, 71.34 87.15, 64.24 91.1 C57.14 95.04, 47.27 97.5, 39.46 96.32 C31.66 95.14, 23.78 89.48, 17.42 83.99 C11.06 78.5, 3.96 71.42, 1.3 63.4 C-1.35 55.37, -0.64 44.1, 1.5 35.83 C3.65 27.56, 8.22 19.64, 14.18 13.78 C20.15 7.92, 33.18 2.7, 37.28 0.65 C41.39 -1.4, 38.61 0.55, 38.83 1.49" stroke="#000000" stroke-width="2" fill="none"></path></g><g transform="translate(751.3876058810379 885.4645960368134) rotate(0 40 24)"><text x="40" y="17" font-family="Virgil, Segoe UI Emoji" font-size="20px" fill="#000000" text-anchor="middle" style="white-space: pre;" direction="ltr">MotoKu</text><text x="40" y="41" font-family="Virgil, Segoe UI Emoji" font-size="20px" fill="#000000" text-anchor="middle" style="white-space: pre;" direction="ltr">rye</text></g><g stroke-linecap="round"><g transform="translate(718.4778715473626 688.8336240084079) rotate(0 -52.631775793229735 19.50841882492989)"><path d="M-0.32 0.36 C-17.99 6.79, -89.41 32.11, -106.97 38.57 M1.71 -0.49 C-15.48 6.04, -86.66 32.74, -104.63 39.51" stroke="#000000" stroke-width="2" fill="none"></path></g><g transform="translate(718.4778715473626 688.8336240084079) rotate(0 -52.631775793229735 19.50841882492989)"><path d="M-81.25 18.82 C-88.73 25.17, -92.78 28.59, -106.59 41.11 M-81.67 20.45 C-87.07 23.99, -91.47 28.81, -105.45 39.34" stroke="#000000" stroke-width="2" fill="none"></path></g><g transform="translate(718.4778715473626 688.8336240084079) rotate(0 -52.631775793229735 19.50841882492989)"><path d="M-74.03 38.03 C-83.09 40.16, -88.71 39.39, -106.59 41.11 M-74.45 39.66 C-81.41 38.89, -87.44 39.34, -105.45 39.34" stroke="#000000" stroke-width="2" fill="none"></path></g></g><g stroke-linecap="round"><g transform="translate(723.8451281499943 689.9070753289341) rotate(0 0.3438044610752513 19.157026916999484)"><path d="M-0.61 -0.11 C-0.36 6.35, 0.47 32.12, 0.52 38.59 M1.27 -1.22 C1.49 5.37, 0.26 32.75, -0.16 39.53" stroke="#000000" stroke-width="2" fill="none"></path></g><g transform="translate(723.8451281499943 689.9070753289341) rotate(0 0.3438044610752513 19.157026916999484)"><path d="M-6.18 21.4 C-6.62 24.17, -5.17 30.52, -1.71 38.82 M-5.95 20.52 C-4.87 26.8, -2.52 30.85, 0.3 40.33" stroke="#000000" stroke-width="2" fill="none"></path></g><g transform="translate(723.8451281499943 689.9070753289341) rotate(0 0.3438044610752513 19.157026916999484)"><path d="M7.39 22.1 C3.98 24.65, 2.48 30.84, -1.71 38.82 M7.61 21.22 C4.9 27.19, 3.44 31.05, 0.3 40.33" stroke="#000000" stroke-width="2" fill="none"></path></g></g><g stroke-linecap="round"><g transform="translate(731.3592873936782 689.9070753289341) rotate(0 48.62331082094761 20.85012721285875)"><path d="M-0.03 -0.42 C16.58 6.81, 82.55 36.06, 98.75 43.38 M-1.51 -1.68 C15.12 5.17, 82.08 34.31, 98.37 41.49" stroke="#000000" stroke-width="2" fill="none"></path></g><g transform="translate(731.3592873936782 689.9070753289341) rotate(0 48.62331082094761 20.85012721285875)"><path d="M67.73 41.38 C75.87 39.25, 82.75 42.05, 99.84 42.49 M68.71 38.9 C75.19 39.33, 82.22 40.15, 99.27 42.46" stroke="#000000" stroke-width="2" fill="none"></path></g><g transform="translate(731.3592873936782 689.9070753289341) rotate(0 48.62331082094761 20.85012721285875)"><path d="M75.95 22.58 C82.26 24.65, 87.3 31.66, 99.84 42.49 M76.93 20.1 C81.65 24.72, 86.85 29.72, 99.27 42.46" stroke="#000000" stroke-width="2" fill="none"></path></g></g><g stroke-linecap="round" transform="translate(1028.705303179459 482.73097046736257) rotate(0 179.5 99.2942471486815)"><path d="M0.38 -0.67 C81.97 2.77, 165.74 2.15, 359.86 -1.11 M-0.03 -0.25 C143.37 -1.69, 285.78 -1.09, 358.58 -0.33 M357.98 1.25 C358.2 62.81, 358.93 125.47, 360.89 199.67 M359.86 -0.81 C360.74 54.78, 359.87 108.7, 358.71 197.73 M358.53 199.45 C250.48 196.6, 142.94 197.89, 0.16 197.57 M359.03 199.15 C231.25 199, 103.99 199.43, -0.4 198.2 M0.25 199.06 C-1.79 142.92, -1.28 87.58, 0.43 -0.44 M-0.74 199.43 C-0.03 157.99, -0.67 116.61, -0.83 0.08" stroke="#000000" stroke-width="2" fill="none"></path></g><g transform="translate(1033.705303179459 557.5252176160438) rotate(0 174.5 24)"><text x="174.5" y="17" font-family="Virgil, Segoe UI Emoji" font-size="20px" fill="#000000" text-anchor="middle" style="white-space: pre;" direction="ltr">delivery-api</text><text x="174.5" y="41" font-family="Virgil, Segoe UI Emoji" font-size="20px" fill="#000000" text-anchor="middle" style="white-space: pre;" direction="ltr">(tum business burda)</text></g><g stroke-linecap="round" transform="translate(1030.8522058205122 337.81504219631324) rotate(0 175.50929090604768 52.06238904552515)"><path d="M0.66 -0.66 C116.8 -1.08, 235.42 0.47, 350.87 -0.65 M-0.29 -0.12 C105.37 -1.7, 211.59 -1.74, 351.45 -0.02 M351.96 0.87 C351.14 41.58, 350.36 82.56, 350.31 103.53 M350.88 -0.64 C350.53 37.91, 351.52 73.16, 351.42 103.85 M350.35 104.04 C245.33 102.95, 142.07 104.51, 1.22 103.06 M351.17 104.37 C252.24 104.21, 155.06 103.87, -0.22 103.63 M0.74 104.18 C-0.48 68.68, 0.35 36.87, 0.86 -0.05 M0.74 104.89 C0 70.73, 0.98 36.12, 0.48 -0.89" stroke="#000000" stroke-width="2" fill="none"></path></g><g transform="translate(1035.8522058205122 376.87743124183817) rotate(0 170.5 12)"><text x="170.5" y="17" font-family="Virgil, Segoe UI Emoji" font-size="20px" fill="#000000" text-anchor="middle" style="white-space: pre;" direction="ltr">consumer</text></g><g stroke-linecap="round" transform="translate(1029.778754499986 241.20442334894778) rotate(0 175 27.5)"><path d="M-0.68 0.05 C118.98 1.41, 235.88 1.15, 348.78 -0.25 M0.16 0 C130.36 2.53, 261.04 2.65, 349.58 0.58 M348.76 -0.79 C352.14 18.08, 351.6 39.33, 349.45 53.79 M349.5 -0.6 C349.87 12.9, 350.82 26.62, 350.04 55.29 M350.89 55.39 C228.44 54.72, 107.03 55.35, -1.11 54.47 M349.84 55.29 C222.48 54.01, 95.51 54.19, -0.21 54.9 M1.98 54.67 C0.71 40.56, 1.6 20.95, -1.34 -1.24 M-0.81 54.12 C0.22 38.64, -0.98 20.2, 0.76 -0.95" stroke="#000000" stroke-width="2" fill="none"></path></g><g transform="translate(1034.778754499986 256.7044233489478) rotate(0 170 12)"><text x="170" y="17" font-family="Virgil, Segoe UI Emoji" font-size="20px" fill="#000000" text-anchor="middle" style="white-space: pre;" direction="ltr">KAFKA/Rabbit</text></g><g stroke-linecap="round"><g transform="translate(1205.8247710662968 295.95044069578853) rotate(0 -0.14231673067001793 20.71052419529417)"><path d="M0.77 1.08 C0.94 7.69, 0.15 34.44, -0.09 40.83 M-0.28 0.59 C-0.18 7.41, -0.83 32.62, -1.08 39.29" stroke="#000000" stroke-width="2" fill="none"></path></g><g transform="translate(1205.8247710662968 295.95044069578853) rotate(0 -0.14231673067001793 20.71052419529417)"><path d="M-5.53 20.29 C-4 23.21, -5.05 27.44, 0.5 37.3 M-6.85 21.36 C-5.34 27.67, -2.44 34.27, -1.04 40.11" stroke="#000000" stroke-width="2" fill="none"></path></g><g transform="translate(1205.8247710662968 295.95044069578853) rotate(0 -0.14231673067001793 20.71052419529417)"><path d="M8.05 20.69 C6.76 23.62, 2.9 27.77, 0.5 37.3 M6.73 21.77 C2.92 27.79, 0.51 34.23, -1.04 40.11" stroke="#000000" stroke-width="2" fill="none"></path></g></g><g stroke-linecap="round"><g transform="translate(1206.898222386823 443.0132716078897) rotate(0 -0.9979793348179555 17.5234933773728)"><path d="M-0.67 -1.18 C-1.11 4.69, -2.83 29.94, -3.18 36.23 M1.19 0.81 C1.15 6.87, -0.17 28.86, -1.01 34.53" stroke="#000000" stroke-width="2" fill="none"></path></g><g transform="translate(1206.898222386823 443.0132716078897) rotate(0 -0.9979793348179555 17.5234933773728)"><path d="M-7.19 15.82 C-2.96 20.87, -1.29 26.68, 0.74 36.17 M-5.19 17.06 C-3.85 23.38, -2.26 27.02, -1.71 34.09" stroke="#000000" stroke-width="2" fill="none"></path></g><g transform="translate(1206.898222386823 443.0132716078897) rotate(0 -0.9979793348179555 17.5234933773728)"><path d="M4.89 16.99 C5.99 21.68, 4.54 27.18, 0.74 36.17 M6.89 18.23 C4.55 24.2, 2.47 27.48, -1.71 34.09" stroke="#000000" stroke-width="2" fill="none"></path></g></g><g stroke-linecap="round" transform="translate(1308.2778668641886 744.2622386345547) rotate(0 39 64)"><path d="M-1.92 -0.77 C17.54 0.56, 35.43 0.34, 79.7 -0.77 M0.04 -0.73 C20.95 -0.03, 42.65 0.48, 78.71 0.38 M76.78 1.42 C79.09 40.65, 79.4 83.24, 76.35 128.3 M77.53 -0.74 C78.59 30.5, 79.26 62.1, 77.04 128.87 M76.26 126.32 C56.15 127.61, 31.83 128.22, -0.24 126.24 M77.43 128.8 C52.21 127.33, 27.6 128.08, 0.37 127.19 M-0.21 128.13 C0.6 85.36, 1.25 43.44, -1.65 1.82 M-0.37 128.09 C0.61 80.56, 1.93 35.98, -0.19 1" stroke="#000000" stroke-width="2" fill="none"></path></g><g transform="translate(1313.2778668641886 795.2622386345547) rotate(0 34 13)"><text x="34" y="18" font-family="Virgil, Segoe UI Emoji" font-size="20px" fill="#000000" text-anchor="middle" style="white-space: pre;" direction="ltr">DB</text></g><g stroke-linecap="round" transform="translate(1019.8164142905753 736.4044202268315) rotate(0 126 71)"><path d="M0.66 -0.81 C55.17 2.25, 109.13 2.07, 253 -0.55 M0.03 0.71 C79.03 -2.18, 159.69 -1.26, 252.51 -0.34 M253.37 0.24 C252.29 54.53, 250.67 112.16, 250.04 142.54 M252.05 0.34 C250.97 33.85, 250.74 67.82, 252 141.66 M253.38 141.43 C174.56 144.31, 96.9 143.89, 1.34 141.12 M251.3 142.68 C179.88 140.87, 108.12 140.89, 0.04 141.55 M-0.6 140.77 C-1.72 89.67, -1.87 39.31, -0.34 0.69 M0.31 142.6 C-0.76 94.23, -0.59 47.9, -0.45 -0.95" stroke="#000000" stroke-width="2" fill="none"></path></g><g stroke-linecap="round"><g transform="translate(1705.7751627770426 647.1324428472501) rotate(0 30.080665620506124 0.5351661369251133)"><path d="M0.72 0.99 C10.24 1.02, 48.32 0.09, 58.15 -0.18 M-0.36 0.46 C9.47 0.71, 50.56 1.28, 60.52 1.26" stroke="#000000" stroke-width="2" fill="none"></path></g><g transform="translate(1705.7751627770426 647.1324428472501) rotate(0 30.080665620506124 0.5351661369251133)"><path d="M34.47 10.03 C43.23 8.61, 53.12 1.62, 62.19 0.27 M32.87 10.55 C41.71 8.73, 48.54 4.93, 59.9 0.8" stroke="#000000" stroke-width="2" fill="none"></path></g><g transform="translate(1705.7751627770426 647.1324428472501) rotate(0 30.080665620506124 0.5351661369251133)"><path d="M34.61 -10.08 C43.25 -3.75, 53.1 -2.98, 62.19 0.27 M33.01 -9.56 C41.7 -5.38, 48.49 -3.18, 59.9 0.8" stroke="#000000" stroke-width="2" fill="none"></path></g></g><g stroke-linecap="round" transform="translate(548.8725629042146 409.7362806715764) rotate(0 170.67875996367934 24.15265471184148)"><path d="M0.8 0.42 C127.12 -0.04, 256.14 -1.29, 340.1 -0.05 M-0.38 0.66 C83.39 -0.06, 165.98 -0.66, 341.32 0.62 M341.43 -0.32 C341.05 13.32, 340.82 23.47, 342.78 47.75 M340.63 -0.27 C340.3 13.9, 341.23 29.5, 341.05 48.2 M341.52 47.05 C264.14 48.55, 189.94 47.87, -1.13 48.22 M341.6 48.09 C231.55 45.6, 121.67 46.06, 0.06 48.14 M1.69 46.34 C1.45 28.79, 0.44 12.66, 0.12 -0.41 M0.65 47.98 C-0.5 33.05, 0.47 18.56, -0.86 -0.11" stroke="#000000" stroke-width="2" fill="none"></path></g><g transform="translate(553.8725629042146 420.88893538341836) rotate(0 165.5 12)"><text x="165.5" y="17" font-family="Virgil, Segoe UI Emoji" font-size="20px" fill="#000000" text-anchor="middle" style="white-space: pre;" direction="ltr">DB</text></g><g stroke-linecap="round"><g transform="translate(716.3062856369011 459.20588118220803) rotate(0 0.3916099783032223 16.036782359073527)"><path d="M-1.1 0.75 C-0.74 5.83, 1.7 25.63, 1.88 30.65 M0.53 0.09 C0.81 5.33, 1.05 26.65, 1.34 31.98" stroke="#000000" stroke-width="2" fill="none"></path></g><g transform="translate(716.3062856369011 459.20588118220803) rotate(0 0.3916099783032223 16.036782359073527)"><path d="M-3.44 18.57 C-3.29 20.18, -1.4 25.71, 2.08 30.65 M-4.77 17.31 C-3.13 22.39, -0.97 25.15, 1.81 32.39" stroke="#000000" stroke-width="2" fill="none"></path></g><g transform="translate(716.3062856369011 459.20588118220803) rotate(0 0.3916099783032223 16.036782359073527)"><path d="M7.17 18.25 C4.37 19.85, 3.29 25.47, 2.08 30.65 M5.84 16.98 C4.42 22.14, 3.51 24.99, 1.81 32.39" stroke="#000000" stroke-width="2" fill="none"></path></g></g><g transform="translate(1024.8164142905753 755.4044202268315) rotate(0 121 52)"><text x="121" y="18" font-family="Virgil, Segoe UI Emoji" font-size="20px" fill="#000000" text-anchor="middle" style="white-space: pre;" direction="ltr">her bit teslimat icin </text><text x="121" y="44" font-family="Virgil, Segoe UI Emoji" font-size="20px" fill="#000000" text-anchor="middle" style="white-space: pre;" direction="ltr">event at</text><text x="121" y="70" font-family="Virgil, Segoe UI Emoji" font-size="20px" fill="#000000" text-anchor="middle" style="white-space: pre;" direction="ltr">/kargo firmalarinin </text><text x="121" y="96" font-family="Virgil, Segoe UI Emoji" font-size="20px" fill="#000000" text-anchor="middle" style="white-space: pre;" direction="ltr">topiclerine</text></g><g stroke-linecap="round" transform="translate(2052.3615432210886 356.10511095714037) rotate(0 156.18716713657432 27.909734333683446)"><path d="M1.04 -0.13 C105.07 2.11, 208.8 1.02, 312.18 -0.55 M-0.56 0.68 C113.8 -0.2, 227.85 1.14, 312.13 0.02 M313.76 -0.89 C312.51 14.63, 313.23 28.82, 313.45 55 M312.33 -0.36 C312.98 13.06, 312.16 26.45, 313.22 55.64 M312.58 56.09 C230.95 57.36, 147.34 58.51, 0.38 54.52 M312.48 56.51 C196.75 53.97, 80.32 53.58, 0.7 55.8 M1.53 57.22 C-1.53 35.61, 0.63 12.01, -0.77 -0.5 M-0.38 55.81 C-0.93 35.89, 0.49 17.66, -0.28 -0.45" stroke="#000000" stroke-width="2" fill="none"></path></g><g transform="translate(2057.3615432210886 371.0148452908238) rotate(0 151 12)"><text x="151" y="17" font-family="Virgil, Segoe UI Emoji" font-size="20px" fill="#000000" text-anchor="middle" style="white-space: pre;" direction="ltr">yk-consumer</text></g><g stroke-linecap="round" transform="translate(2403.916850693446 355.0316596366142) rotate(0 156.18716713657432 27.909734333683446)"><path d="M1.37 -0.5 C80.57 -2.83, 161.06 -2.08, 311.59 0.82 M0.64 0.38 C65.49 -0.67, 130.96 -0.49, 312.15 0.43 M310.82 0.59 C310.84 16.57, 314.68 35.27, 313.48 56.28 M312.8 -0.63 C311.62 17.98, 313.05 37.12, 311.58 55.54 M312.61 55.3 C223.05 54.99, 135.27 55.54, 0.58 55.6 M312.49 55.6 C203.85 56.39, 97.01 56.41, 0.15 56.31 M-1.27 55.97 C0.28 33.79, 2.12 15.5, -0.68 1.18 M-0.2 56.5 C0.64 40.74, -0.34 24.78, -0.93 0.61" stroke="#000000" stroke-width="2" fill="none"></path></g><g transform="translate(2408.916850693446 370.94139397029767) rotate(0 151 12)"><text x="151" y="17" font-family="Virgil, Segoe UI Emoji" font-size="20px" fill="#000000" text-anchor="middle" style="white-space: pre;" direction="ltr">aras-consumer</text></g><g stroke-linecap="round"><g transform="translate(2197.2774714921384 283.11042116135286) rotate(0 0.1261381495137357 34.22958278811291)"><path d="M-0.77 -1.14 C-0.81 10.51, 0.24 58.09, 0.43 69.6 M1.02 0.87 C0.81 12.23, -0.08 56.62, -0.29 67.95" stroke="#000000" stroke-width="2" fill="none"></path></g><g transform="translate(2197.2774714921384 283.11042116135286) rotate(0 0.1261381495137357 34.22958278811291)"><path d="M-11.91 40.29 C-5.15 50.26, -4.48 61.03, -1.71 67.96 M-9.06 38.65 C-7.83 45.85, -4.73 54.19, -0.71 67.07" stroke="#000000" stroke-width="2" fill="none"></path></g><g transform="translate(2197.2774714921384 283.11042116135286) rotate(0 0.1261381495137357 34.22958278811291)"><path d="M8.61 40.68 C8.12 50.38, 1.53 61.01, -1.71 67.96 M11.46 39.05 C7.64 46.16, 5.69 54.4, -0.71 67.07" stroke="#000000" stroke-width="2" fill="none"></path></g></g><g transform="translate(2218.746497902663 295.5794475718785) rotate(0 104 13)"><text x="0" y="18" font-family="Virgil, Segoe UI Emoji" font-size="20px" fill="#000000" text-anchor="start" style="white-space: pre;" direction="ltr">teslimat eventi dinler</text></g><g stroke-linecap="round" transform="translate(2130.429684337402 1048.6657751282323) rotate(0 75.67831809710333 67.62743319315587)"><path d="M55.14 2.6 C64.55 -1.06, 76.57 -1.76, 87.27 -0.02 C97.98 1.72, 110.32 7.27, 119.36 13.04 C128.4 18.82, 136.31 26.27, 141.54 34.64 C146.77 43.01, 149.95 53.67, 150.74 63.26 C151.54 72.85, 150.26 83.23, 146.29 92.19 C142.33 101.15, 135.1 110.2, 126.94 116.99 C118.79 123.79, 107.85 130.06, 97.37 132.97 C86.9 135.87, 74.83 135.99, 64.1 134.43 C53.38 132.87, 42.25 129.17, 33.03 123.6 C23.82 118.02, 14.27 109.71, 8.82 101 C3.37 92.28, 0.73 81, 0.34 71.31 C-0.05 61.61, 2.46 51.94, 6.48 42.83 C10.49 33.71, 16.02 23.24, 24.44 16.62 C32.86 9.99, 51.13 5.47, 57.01 3.1 C62.88 0.73, 59.47 1.54, 59.7 2.4 M41.07 7.75 C49.92 2.72, 63.62 -0.59, 74.6 -0.96 C85.59 -1.33, 97.13 1.32, 106.97 5.53 C116.82 9.74, 126.91 16.84, 133.69 24.28 C140.46 31.72, 144.98 40.78, 147.62 50.19 C150.25 59.6, 151.27 70.93, 149.52 80.74 C147.78 90.56, 143.95 101, 137.14 109.08 C130.32 117.16, 118.56 124.87, 108.63 129.22 C98.7 133.57, 88.11 135.26, 77.56 135.17 C67.01 135.09, 55.19 132.62, 45.32 128.71 C35.44 124.8, 25.67 119.17, 18.3 111.7 C10.94 104.23, 3.84 93.3, 1.12 83.88 C-1.6 74.47, -0.27 64.55, 1.97 55.2 C4.21 45.85, 7.81 35.68, 14.56 27.78 C21.31 19.87, 38.03 11.08, 42.49 7.76 C46.95 4.43, 40.95 7.1, 41.33 7.81" stroke="#000000" stroke-width="2" fill="none"></path></g><g transform="translate(2135.429684337402 1103.2932083213886) rotate(0 70.5 12)"><text x="70.5" y="17" font-family="Virgil, Segoe UI Emoji" font-size="20px" fill="#000000" text-anchor="middle" style="white-space: pre;" direction="ltr">yk-api</text></g><g stroke-linecap="round" transform="translate(2053.4349945416147 468.81749961240075) rotate(0 335 100.9044241294705)"><path d="M0.75 -0.54 C262.65 -2.01, 524.38 -1.94, 670.67 0.73 M-0.08 -0.22 C184.94 1.31, 369.96 1.3, 670.33 0.25 M669.68 1.67 C671.46 73.25, 668.97 144.27, 670.97 201.78 M669.47 0.63 C670.72 70.9, 671.37 140.16, 669.31 202.29 M670.74 201.77 C417.51 202.52, 166.39 201.96, 0.55 202.02 M669.79 202.1 C516.97 202.67, 363.1 202.82, 0.17 201.69 M0.77 202.57 C-1 159.59, -0.76 118.43, -0.11 -0.1 M0.05 202 C-1.53 159.6, -1.27 117.19, -0.29 0.38" stroke="#000000" stroke-width="2" fill="none"></path></g><g transform="translate(2058.4349945416147 521.7219237418713) rotate(0 330 48)"><text x="330" y="17" font-family="Virgil, Segoe UI Emoji" font-size="20px" fill="#000000" text-anchor="middle" style="white-space: pre;" direction="ltr">shipment-api</text><text x="330" y="41" font-family="Virgil, Segoe UI Emoji" font-size="20px" fill="#000000" text-anchor="middle" style="white-space: pre;" direction="ltr">[POST] shipment/yk</text><text x="330" y="65" font-family="Virgil, Segoe UI Emoji" font-size="20px" fill="#000000" text-anchor="middle" style="white-space: pre;" direction="ltr">[POST] shipment/aras</text><text x="330" y="89" font-family="Virgil, Segoe UI Emoji" font-size="20px" fill="#000000" text-anchor="middle" style="white-space: pre;" direction="ltr">[GET] shipment/aras/91827309</text></g><g stroke-linecap="round"><g transform="translate(2204.7916307358214 414.0714822655609) rotate(0 -0.03955872722326603 27.0856938593995)"><path d="M0.87 0.87 C0.87 9.58, -0.06 44.13, -0.37 52.81 M-0.13 0.27 C-0.2 9.08, -0.69 44.96, -0.95 53.9" stroke="#000000" stroke-width="2" fill="none"></path></g><g transform="translate(2204.7916307358214 414.0714822655609) rotate(0 -0.03955872722326603 27.0856938593995)"><path d="M-8.18 29.66 C-8.58 35.5, -5.98 42.81, -1 52.27 M-9.15 28.79 C-7 36.7, -4.55 42.77, -1.24 53.9" stroke="#000000" stroke-width="2" fill="none"></path></g><g transform="translate(2204.7916307358214 414.0714822655609) rotate(0 -0.03955872722326603 27.0856938593995)"><path d="M10.18 30.03 C4.76 35.91, 2.35 43.11, -1 52.27 M9.21 29.16 C6.13 36.98, 3.37 42.95, -1.24 53.9" stroke="#000000" stroke-width="2" fill="none"></path></g></g><g stroke-linecap="round"><g transform="translate(2555.810212547915 411.8511283039811) rotate(0 -0.9274878115693355 26.382431325368998)"><path d="M-0.18 -0.35 C-0.38 8.51, -0.11 44.22, 0.01 53.13 M-1.74 -1.58 C-2.2 7.43, -1.23 45.06, -0.94 54.34" stroke="#000000" stroke-width="2" fill="none"></path></g><g transform="translate(2555.810212547915 411.8511283039811) rotate(0 -0.9274878115693355 26.382431325368998)"><path d="M-11.39 29.35 C-7.89 40.21, -3.98 49.74, -0.36 55.98 M-10.17 28.97 C-8.18 35.9, -4.93 43.97, -0.33 53.58" stroke="#000000" stroke-width="2" fill="none"></path></g><g transform="translate(2555.810212547915 411.8511283039811) rotate(0 -0.9274878115693355 26.382431325368998)"><path d="M6.99 28.86 C3.14 39.89, -0.29 49.61, -0.36 55.98 M8.2 28.47 C5.17 35.44, 3.38 43.65, -0.33 53.58" stroke="#000000" stroke-width="2" fill="none"></path></g></g><g stroke-linecap="round"><g transform="translate(2182.130903658845 669.6263478713417) rotate(0 5.66126569205835 187.20195917741808)"><path d="M0.33 -0.05 C2.56 62.72, 10.08 313.11, 12.29 375.52 M-0.96 -1.12 C1.2 61.4, 8.89 311.01, 11.28 373.79" stroke="#000000" stroke-width="2" fill="none"></path></g><g transform="translate(2182.130903658845 669.6263478713417) rotate(0 5.66126569205835 187.20195917741808)"><path d="M-0.01 345.79 C3.36 353.62, 3.8 356.54, 9.8 372.27 M1 346.54 C2.74 353.96, 6.44 360.58, 11.9 373.9" stroke="#000000" stroke-width="2" fill="none"></path></g><g transform="translate(2182.130903658845 669.6263478713417) rotate(0 5.66126569205835 187.20195917741808)"><path d="M20.5 345.09 C19.64 353.12, 15.86 356.19, 9.8 372.27 M21.51 345.84 C17.91 353.41, 16.27 360.21, 11.9 373.9" stroke="#000000" stroke-width="2" fill="none"></path></g></g><g stroke-linecap="round" transform="translate(2405.769948052394 1041.1516158845493) rotate(0 75.67831809710333 67.62743319315587)"><path d="M40.33 8.63 C49.04 3.39, 61.95 0.73, 72.78 0.27 C83.61 -0.19, 95.11 1.85, 105.3 5.85 C115.48 9.85, 126.59 16.8, 133.88 24.25 C141.17 31.7, 146.44 41.09, 149.04 50.55 C151.64 60.01, 151.74 71.36, 149.48 81.02 C147.22 90.68, 141.8 100.68, 135.48 108.49 C129.17 116.29, 121.04 123.36, 111.57 127.84 C102.11 132.33, 89.64 135.05, 78.71 135.42 C67.77 135.8, 56.08 134.02, 45.95 130.09 C35.81 126.15, 25.2 119.2, 17.88 111.83 C10.55 104.47, 4.58 95.48, 1.99 85.9 C-0.6 76.32, 0.06 64.11, 2.31 54.36 C4.56 44.61, 6.75 35.86, 15.48 27.39 C24.2 18.93, 46.01 7.96, 54.65 3.57 C63.29 -0.83, 66.95 -0.02, 67.3 1 M98.01 1.21 C108.03 2.49, 117.72 9.4, 125.75 16.4 C133.79 23.4, 142.03 33.98, 146.22 43.2 C150.42 52.41, 151.88 62.14, 150.92 71.7 C149.96 81.25, 145.74 91.8, 140.45 100.53 C135.16 109.25, 127.7 118.38, 119.2 124.02 C110.71 129.67, 100.34 132.97, 89.47 134.41 C78.6 135.86, 64.87 135.42, 54.01 132.71 C43.15 130.01, 32.53 124.92, 24.32 118.21 C16.11 111.49, 8.67 101.69, 4.76 92.42 C0.86 83.14, -0.01 72.02, 0.89 62.55 C1.8 53.08, 5.12 43.99, 10.17 35.58 C15.21 27.17, 22.12 17.83, 31.18 12.1 C40.23 6.38, 53.69 2.79, 64.51 1.24 C75.32 -0.32, 90.83 2.4, 96.07 2.77 C101.32 3.14, 96.22 2.41, 95.97 3.43" stroke="#000000" stroke-width="2" fill="none"></path></g><g transform="translate(2410.769948052394 1096.7790490777056) rotate(0 70.5 12)"><text x="70.5" y="17" font-family="Virgil, Segoe UI Emoji" font-size="20px" fill="#000000" text-anchor="middle" style="white-space: pre;" direction="ltr">aras-api</text></g><g stroke-linecap="round"><g transform="translate(2470.713752944234 672.9201531534479) rotate(0 2.6634549397363116 182.06132112162322)"><path d="M-0.69 -0.22 C0.23 60.59, 5.17 304.58, 6.02 365.5 M1.15 -1.38 C1.96 58.99, 5.26 302.17, 5.62 363.51" stroke="#000000" stroke-width="2" fill="none"></path></g><g transform="translate(2470.713752944234 672.9201531534479) rotate(0 2.6634549397363116 182.06132112162322)"><path d="M-5.29 337.19 C-0.76 344.12, 2.55 354.15, 4.88 363.31 M-5.35 335.99 C-1.14 343.32, 0.56 350.59, 6.44 364.46" stroke="#000000" stroke-width="2" fill="none"></path></g><g transform="translate(2470.713752944234 672.9201531534479) rotate(0 2.6634549397363116 182.06132112162322)"><path d="M15.23 336.98 C12.74 343.86, 9.03 353.96, 4.88 363.31 M15.17 335.78 C13.63 343.32, 9.57 350.65, 6.44 364.46" stroke="#000000" stroke-width="2" fill="none"></path></g></g><g stroke-linecap="round"><g transform="translate(2037.9739221466257 492.00498628515334) rotate(0 -324.15211172436284 -1.2397109371308943)"><path d="M0.45 0.52 C-107.38 0.08, -540.06 -2.68, -648.08 -3 M-0.77 -0.26 C-108.62 -0.53, -540.9 -1.35, -648.76 -1.85" stroke="#000000" stroke-width="2" fill="none"></path></g><g transform="translate(2037.9739221466257 492.00498628515334) rotate(0 -324.15211172436284 -1.2397109371308943)"><path d="M-619.67 -11.17 C-627.71 -8.18, -630.92 -6.58, -648.53 -0.23 M-619.78 -11.85 C-631.51 -9.05, -642.46 -3.97, -648.2 -1.37" stroke="#000000" stroke-width="2" fill="none"></path></g><g transform="translate(2037.9739221466257 492.00498628515334) rotate(0 -324.15211172436284 -1.2397109371308943)"><path d="M-619.73 9.35 C-627.7 8.04, -630.89 5.32, -648.53 -0.23 M-619.84 8.68 C-631.48 3.64, -642.41 0.88, -648.2 -1.37" stroke="#000000" stroke-width="2" fill="none"></path></g></g><g transform="translate(1826.447188632968 447.7421800312345) rotate(0 100 13)"><text x="0" y="18" font-family="Virgil, Segoe UI Emoji" font-size="20px" fill="#000000" text-anchor="start" style="white-space: pre;" direction="ltr">olusturuldu/teslimat</text></g><g stroke-linecap="round" transform="translate(1454.0790404918862 552.9939998460402) rotate(0 121 73.5)"><path d="M-0.54 0.82 C82.1 -2.16, 166.7 -3.01, 241.47 1.15 M-0.53 -0.06 C66.06 0.95, 133.09 0.12, 242.16 -0.09 M243.69 1.69 C241.45 43.2, 243.73 83.12, 242.06 148.67 M241.97 -0.7 C243.1 33.09, 243.04 67.01, 242.88 146.43 M242.2 147.53 C164.95 146.14, 87.45 145.68, 1.19 148.18 M241.55 147.65 C152.39 148.61, 63.76 148.75, -0.4 147.39 M1.94 148.49 C-0.9 109.45, -1.55 69.46, -0.78 -1.18 M0.1 147.21 C0.93 112.52, 0.29 78.52, 0.71 0.34" stroke="#000000" stroke-width="2" fill="none"></path></g><g transform="translate(1459.0790404918862 613.4939998460402) rotate(0 116 13)"><text x="116" y="18" font-family="Virgil, Segoe UI Emoji" font-size="20px" fill="#000000" text-anchor="middle" style="white-space: pre;" direction="ltr">status-consumer</text></g><g stroke-linecap="round"><g transform="translate(1574.3806133942794 152.37158227937562) rotate(0 -1.095236848507966 99.68789762904453)"><path d="M-0.23 0.02 C-0.21 33.48, -0.32 167.13, -0.41 200.4 M-1.81 -1.02 C-1.94 32.13, -2.16 165, -1.57 198.66" stroke="#000000" stroke-width="2" fill="none"></path></g><g transform="translate(1574.3806133942794 152.37158227937562) rotate(0 -1.095236848507966 99.68789762904453)"><path d="M-11.99 169.85 C-8.18 176.58, -6.74 186.45, -1.52 197.53 M-12.17 169.87 C-8.07 180.72, -5.67 190.24, -2.16 198.88" stroke="#000000" stroke-width="2" fill="none"></path></g><g transform="translate(1574.3806133942794 152.37158227937562) rotate(0 -1.095236848507966 99.68789762904453)"><path d="M8.53 169.72 C7.04 176.44, 3.17 186.34, -1.52 197.53 M8.35 169.73 C5.47 180.8, 0.88 190.37, -2.16 198.88" stroke="#000000" stroke-width="2" fill="none"></path></g></g><g transform="translate(1628.2743202236356 130.28318487370234) rotate(0 174.5 13)"><text x="0" y="18" font-family="Virgil, Segoe UI Emoji" font-size="20px" fill="#000000" text-anchor="start" style="white-space: pre;" direction="ltr">YK' statu degistiginde event birakir</text></g><g stroke-linecap="round" transform="translate(1771.9333161617005 543.5218260696599) rotate(0 106.99999999999977 114.32256563604926)"><path d="M-0.82 1.48 C69.54 0.28, 138.41 1.03, 212.82 -0.26 M0.25 -0.04 C44.25 0.84, 86.01 1.45, 213.31 0.08 M215.59 0.2 C212.89 48.22, 212.68 97.21, 214.15 229.54 M213.47 -0.63 C214.71 87.14, 215.29 173.79, 213.41 228.41 M214.68 228.24 C143.89 230.37, 70.79 230.01, 1.15 230.36 M213.34 228.86 C170.57 228.91, 126.45 229.62, -0.41 228.62 M1.61 230.07 C3.45 167.91, 0.63 107.05, -1.55 0.16 M0.57 228.15 C-1.05 144.95, -2.25 60.71, 0.37 -0.67" stroke="#000000" stroke-width="2" fill="none"></path></g><g transform="translate(1776.9333161617005 585.3443917057089) rotate(0 102 72)"><text x="102" y="17" font-family="Virgil, Segoe UI Emoji" font-size="20px" fill="#000000" text-anchor="middle" style="white-space: pre;" direction="ltr">status-checker</text><text x="102" y="41" font-family="Virgil, Segoe UI Emoji" font-size="20px" fill="#000000" text-anchor="middle" style="white-space: pre;" direction="ltr">delivery apida ki </text><text x="102" y="65" font-family="Virgil, Segoe UI Emoji" font-size="20px" fill="#000000" text-anchor="middle" style="white-space: pre;" direction="ltr">paketlerin </text><text x="102" y="89" font-family="Virgil, Segoe UI Emoji" font-size="20px" fill="#000000" text-anchor="middle" style="white-space: pre;" direction="ltr">statulerini kontrol </text><text x="102" y="113" font-family="Virgil, Segoe UI Emoji" font-size="20px" fill="#000000" text-anchor="middle" style="white-space: pre;" direction="ltr">eder</text><text x="102" y="137" font-family="Virgil, Segoe UI Emoji" font-size="20px" fill="#000000" text-anchor="middle" style="white-space: pre;" direction="ltr">schedule job</text></g><g stroke-linecap="round"><g transform="translate(1026.558400538414 584.708845917372) rotate(0 -61.5896641121451 3.1112088044512802)"><path d="M-0.54 -0.13 C-21.38 1.16, -103.06 6.21, -123.92 7.46 M1.37 -1.24 C-19.67 -0.25, -103.75 4.75, -124.55 5.88" stroke="#000000" stroke-width="2" fill="none"></path></g><g transform="translate(1026.558400538414 584.708845917372) rotate(0 -61.5896641121451 3.1112088044512802)"><path d="M-97.2 -4.97 C-106.12 -3.42, -117.05 3.05, -122.93 5.89 M-96.72 -6.38 C-103.94 -1.96, -111.41 0.68, -125.35 5.22" stroke="#000000" stroke-width="2" fill="none"></path></g><g transform="translate(1026.558400538414 584.708845917372) rotate(0 -61.5896641121451 3.1112088044512802)"><path d="M-96.03 15.52 C-105.36 9.03, -116.75 7.46, -122.93 5.89 M-95.55 14.1 C-103.14 13.02, -110.93 10.14, -125.35 5.22" stroke="#000000" stroke-width="2" fill="none"></path></g></g><g transform="translate(859.500040130094 495.26829952271146) rotate(0 9.571428571428442 19.142857142856883)"><text x="0" y="30.285714285713766" font-family="Cascadia, Segoe UI Emoji" font-size="31.324675324674903px" fill="#000000" text-anchor="start" style="white-space: pre;" direction="ltr">1</text></g><g transform="translate(1058.0714687015225 492.41115666556834) rotate(0 11 22)"><text x="0" y="35" font-family="Cascadia, Segoe UI Emoji" font-size="36px" fill="#000000" text-anchor="start" style="white-space: pre;" direction="ltr">2</text></g><g transform="translate(1063.7857544158078 358.12544237985367) rotate(0 11 22)"><text x="0" y="35" font-family="Cascadia, Segoe UI Emoji" font-size="36px" fill="#000000" text-anchor="start" style="white-space: pre;" direction="ltr">3</text></g><g transform="translate(1033.896865526919 821.2444899989027) rotate(0 11 22)"><text x="0" y="35" font-family="Cascadia, Segoe UI Emoji" font-size="36px" fill="#000000" text-anchor="start" style="white-space: pre;" direction="ltr">3</text></g><g transform="translate(2089.1825798126342 502.8238550782671) rotate(0 11 22)"><text x="0" y="35" font-family="Cascadia, Segoe UI Emoji" font-size="36px" fill="#000000" text-anchor="start" style="white-space: pre;" direction="ltr">4</text></g><g transform="translate(2267.150833780887 1019.6492519036638) rotate(0 67.85714285714312 17.85714285714289)"><text x="0" y="28.714285714285772" font-family="Cascadia, Segoe UI Emoji" font-size="28.57142857142862px" fill="#000000" text-anchor="start" style="white-space: pre;" direction="ltr">mock-api</text></g><g transform="translate(2332.0397226697755 363.7524265068382) rotate(0 11.428571428571558 22.857142857142662)"><text x="0" y="36.714285714285325" font-family="Cascadia, Segoe UI Emoji" font-size="36.571428571428264px" fill="#000000" text-anchor="start" style="white-space: pre;" direction="ltr">5</text></g><g transform="translate(2420.611151241203 360.32385507826666) rotate(0 11.428571428571558 22.857142857142662)"><text x="0" y="36.714285714285325" font-family="Cascadia, Segoe UI Emoji" font-size="36.571428571428264px" fill="#000000" text-anchor="start" style="white-space: pre;" direction="ltr">5</text></g><g transform="translate(1655.2143258443793 569.2127439671549) rotate(0 8.571428571428442 17.142857142856883)"><text x="0" y="27.285714285713766" font-family="Cascadia, Segoe UI Emoji" font-size="27.428571428571015px" fill="#000000" text-anchor="start" style="white-space: pre;" direction="ltr">6</text></g><g transform="translate(1953.1508337808887 552.6095693639809) rotate(0 8.5 17)"><text x="0" y="27" font-family="Cascadia, Segoe UI Emoji" font-size="27.428571428571015px" fill="#000000" text-anchor="start" style="white-space: pre;" direction="ltr">7</text></g><g stroke-linecap="round"><g transform="translate(1153.1967992180748 681.3203100533872) rotate(0 0.3693770115226016 25.196897379785355)"><path d="M1.12 -1.13 C1.05 7.23, 0.37 41.52, 0.39 50.08 M0.25 0.89 C-0.02 9.45, -0.49 43.09, -0.36 51.53" stroke="#000000" stroke-width="2" fill="none"></path></g><g transform="translate(1153.1967992180748 681.3203100533872) rotate(0 0.3693770115226016 25.196897379785355)"><path d="M-10.8 28.55 C-6.04 38.55, -2.65 46.02, -2.07 52.19 M-8.93 27.52 C-6.86 35.49, -4.37 41.04, -1.19 50.94" stroke="#000000" stroke-width="2" fill="none"></path></g><g transform="translate(1153.1967992180748 681.3203100533872) rotate(0 0.3693770115226016 25.196897379785355)"><path d="M6.38 28.58 C4.78 38.73, 1.82 46.19, -2.07 52.19 M8.26 27.55 C5.25 35.62, 2.67 41.15, -1.19 50.94" stroke="#000000" stroke-width="2" fill="none"></path></g></g><g stroke-linecap="round"><g transform="translate(1350.3261072025125 694.2171379512379) rotate(0 -0.36539377360600156 22.497102027147434)"><path d="M-1.13 0.39 C-1.15 7.77, -0.35 38.07, -0.17 45.45 M0.47 -0.46 C0.29 7.14, -0.99 36.78, -1.2 43.95" stroke="#000000" stroke-width="2" fill="none"></path></g><g transform="translate(1350.3261072025125 694.2171379512379) rotate(0 -0.36539377360600156 22.497102027147434)"><path d="M-7.35 22.61 C-3.82 29.07, -3.12 33.57, -0.54 43.86 M-8.37 22.27 C-4.74 29.89, -3.7 37.38, -1.79 44.15" stroke="#000000" stroke-width="2" fill="none"></path></g><g transform="translate(1350.3261072025125 694.2171379512379) rotate(0 -0.36539377360600156 22.497102027147434)"><path d="M7.78 23.18 C6.87 29.33, 3.15 33.66, -0.54 43.86 M6.76 22.83 C4.89 30.25, 0.42 37.53, -1.79 44.15" stroke="#000000" stroke-width="2" fill="none"></path></g></g><g stroke-linecap="round"><g transform="translate(1393.6726726878614 621.6217814549918) rotate(0 29.19931920281283 0.3275583458645315)"><path d="M-1.12 -0.78 C8.85 -0.6, 49.42 0.68, 59.52 1 M0.49 1.43 C10.41 1.29, 49.22 -0.25, 59 -0.6" stroke="#000000" stroke-width="2" fill="none"></path></g><g transform="translate(1393.6726726878614 621.6217814549918) rotate(0 29.19931920281283 0.3275583458645315)"><path d="M30.51 11.81 C40.86 9.06, 48.43 6.13, 59.05 -2.21 M32.4 10.96 C36.86 8.6, 42.27 5.24, 59.84 -0.06" stroke="#000000" stroke-width="2" fill="none"></path></g><g transform="translate(1393.6726726878614 621.6217814549918) rotate(0 29.19931920281283 0.3275583458645315)"><path d="M29.77 -8.25 C40.3 -5.55, 48.09 -3.04, 59.05 -2.21 M31.65 -9.1 C36.39 -7.28, 41.95 -6.47, 59.84 -0.06" stroke="#000000" stroke-width="2" fill="none"></path></g></g><g stroke-linecap="round"><g transform="translate(1995.827539394672 639.1508449722314) rotate(0 22.062894673649225 0.5951764826382941)"><path d="M-0.5 -0.52 C6.82 -0.27, 37.25 0.92, 44.62 0.98 M1.44 1.82 C8.56 1.8, 36.91 -0.5, 43.77 -0.63" stroke="#000000" stroke-width="2" fill="none"></path></g><g transform="translate(1995.827539394672 639.1508449722314) rotate(0 22.062894673649225 0.5951764826382941)"><path d="M22.46 8.4 C32.36 3.89, 37.79 0.62, 41.8 -1.59 M22.63 7.37 C29.55 5.32, 33.96 3.23, 42.97 -1.48" stroke="#000000" stroke-width="2" fill="none"></path></g><g transform="translate(1995.827539394672 639.1508449722314) rotate(0 22.062894673649225 0.5951764826382941)"><path d="M21.65 -6.78 C31.77 -5.83, 37.49 -3.64, 41.8 -1.59 M21.82 -7.8 C28.92 -5.85, 33.55 -3.93, 42.97 -1.48" stroke="#000000" stroke-width="2" fill="none"></path></g></g></svg>