<svg version="1.1" xmlns="http://www.w3.org/2000/svg" viewBox="0 0 4792.392156862754 2774.90196078431" width="4792.392156862754" height="2774.90196078431" filter="invert(93%) hue-rotate(180deg)">
  <!-- svg-source:excalidraw -->
  
  <defs>
    <style>
      @font-face {
        font-family: "Virgil";
        src: url("https://excalidraw.com/Virgil.woff2");
      }
      @font-face {
        font-family: "Cascadia";
        src: url("https://excalidraw.com/Cascadia.woff2");
      }
    </style>
  </defs>
  <rect x="0" y="0" width="4792.392156862754" height="2774.90196078431" fill="#ffffff"></rect><g stroke-linecap="round" transform="translate(906.6666666666679 1872.450980392155) rotate(0 292.5000000000002 163.75)"><path d="M81.88 0 M81.88 0 C192.22 3.35, 297.08 4.01, 503.13 0 M81.88 0 C243.53 -1.96, 404.8 -2.75, 503.13 0 M503.13 0 C557.72 2.5, 585.27 24.26, 585 81.88 M503.13 0 C557.79 1.82, 581.76 23.9, 585 81.88 M585 81.88 C590.78 131.07, 591.42 178.04, 585 245.63 M585 81.88 C585.78 130.69, 584.21 177.09, 585 245.63 M585 245.63 C581.12 303.78, 554.95 328.51, 503.13 327.5 M585 245.63 C587.89 301.36, 560.03 327.81, 503.13 327.5 M503.13 327.5 C365.41 322.42, 227.84 323.97, 81.88 327.5 M503.13 327.5 C339.34 328.16, 176.97 326.9, 81.88 327.5 M81.88 327.5 C29.93 324.31, 3.95 297.63, 0 245.63 M81.88 327.5 C30.1 323.65, -1.94 301.95, 0 245.63 M0 245.63 C3.88 210, -0.76 177.87, 0 81.88 M0 245.63 C2.01 211.77, 2.96 174.19, 0 81.88 M0 81.88 C1.29 25.17, 30.53 -1.94, 81.88 0 M0 81.88 C3.58 24.25, 23.78 -0.77, 81.88 0" stroke="#000000" stroke-width="4" fill="none"></path></g><g transform="translate(1112.5000000000005 1978.7843137254888) rotate(0 74.5 44)"><text x="74.5" y="35" font-family="Cascadia, Segoe UI Emoji" font-size="36px" fill="#000000" text-anchor="middle" style="white-space: pre;" direction="ltr">Auth </text><text x="74.5" y="79" font-family="Cascadia, Segoe UI Emoji" font-size="36px" fill="#000000" text-anchor="middle" style="white-space: pre;" direction="ltr">Service</text></g><g stroke-linecap="round" transform="translate(10 1061.6176470588216) rotate(0 240 221.66666666666646)"><path d="M376.27 40.01 C394.2 47.1, 410.19 63.89, 423.63 77.77 C437.06 91.65, 448.58 106.96, 456.89 123.28 C465.2 139.59, 469.91 157.78, 473.49 175.67 C477.07 193.56, 478.89 212.04, 478.38 230.64 C477.87 249.24, 476.37 269.55, 470.43 287.29 C464.5 305.03, 453.01 321.17, 442.78 337.06 C432.55 352.95, 422.91 369.67, 409.05 382.63 C395.19 395.58, 377.18 406.01, 359.64 414.79 C342.1 423.57, 322.77 430.82, 303.82 435.32 C284.86 439.83, 265.98 441.3, 245.89 441.81 C225.81 442.32, 203.17 442.61, 183.29 438.4 C163.41 434.19, 144.2 425.33, 126.61 416.54 C109.02 407.74, 92.53 398.11, 77.75 385.62 C62.97 373.13, 48.59 356.95, 37.95 341.61 C27.31 326.27, 19.91 310.48, 13.92 293.59 C7.94 276.71, 3.94 258.47, 2.03 240.31 C0.13 222.15, -0.44 203.01, 2.48 184.63 C5.41 166.26, 11.32 146.97, 19.58 130.05 C27.85 113.13, 39.08 97.13, 52.07 83.11 C65.06 69.1, 81.74 56.68, 97.51 45.95 C113.28 35.23, 128.92 26.36, 146.7 18.75 C164.47 11.13, 184.17 2.98, 204.18 0.25 C224.18 -2.47, 246.77 -0.03, 266.74 2.42 C286.7 4.88, 299.9 4.2, 323.96 14.99 C348.02 25.78, 392.41 52.67, 411.08 67.16 C429.76 81.65, 438.79 99.65, 436 101.93 M76.15 55.89 C88.21 41.2, 110.58 35.4, 128.35 27.51 C146.13 19.62, 163.92 12.66, 182.78 8.57 C201.64 4.48, 222.2 3.59, 241.53 2.98 C260.87 2.36, 279.03 1.03, 298.78 4.89 C318.52 8.75, 342.42 16.83, 360 26.13 C377.59 35.43, 390.02 47.33, 404.27 60.69 C418.52 74.05, 434.44 90.92, 445.5 106.29 C456.56 121.67, 465.4 135.56, 470.64 152.97 C475.88 170.37, 476.04 192.52, 476.91 210.71 C477.79 228.91, 478.95 243.9, 475.9 262.16 C472.85 280.41, 467.34 303.45, 458.61 320.24 C449.89 337.03, 437.05 349.15, 423.55 362.9 C410.04 376.65, 393.52 391.94, 377.6 402.75 C361.67 413.56, 346.73 421.4, 327.98 427.74 C309.23 434.08, 285.04 438.35, 265.1 440.77 C245.15 443.18, 228.03 444.43, 208.32 442.24 C188.62 440.05, 165.33 434.69, 146.85 427.63 C128.37 420.57, 113.38 411.01, 97.45 399.89 C81.53 388.77, 64.25 375.58, 51.3 360.91 C38.35 346.24, 27.44 328.26, 19.78 311.86 C12.12 295.46, 8.73 279.9, 5.35 262.51 C1.96 245.12, -1.9 225.66, -0.55 207.52 C0.81 189.38, 6.59 171.23, 13.48 153.67 C20.36 136.11, 30.4 118.14, 40.77 102.16 C51.14 86.19, 69.48 64.02, 75.71 57.82 C81.94 51.61, 74.71 61.65, 78.14 64.91" stroke="#000000" stroke-width="4" fill="none"></path></g><g transform="translate(193.33333333333348 1260.9509803921549) rotate(0 49.5 17.5)"><text x="0" y="28" font-family="Cascadia, Segoe UI Emoji" font-size="28px" fill="#000000" text-anchor="start" style="white-space: pre;" direction="ltr">client</text></g><g stroke-linecap="round"><g transform="translate(489.77909272011766 1305.6690660556274) rotate(0 219.5242731819592 -0.3335343463817253)"><path d="M0.87 0.51 C74.82 0.18, 367.92 -1.69, 441.15 -1.14 M-2.1 -1.68 C71.86 -1.85, 366.37 0.82, 439.87 1.01" stroke="#000000" stroke-width="4" fill="none"></path></g><g transform="translate(489.77909272011766 1305.6690660556274) rotate(0 219.5242731819592 -0.3335343463817253)"><path d="M412.35 13.62 C413.58 10.04, 426.58 10.08, 441.86 -2.42 M410.77 9.54 C421.31 9.04, 431.01 4.07, 440.72 2.31" stroke="#000000" stroke-width="4" fill="none"></path></g><g transform="translate(489.77909272011766 1305.6690660556274) rotate(0 219.5242731819592 -0.3335343463817253)"><path d="M412.47 -6.9 C413.81 -6.18, 426.78 -1.85, 441.86 -2.42 M410.9 -10.98 C421.67 -4.25, 431.32 -1.97, 440.72 2.31" stroke="#000000" stroke-width="4" fill="none"></path></g></g><g stroke-linecap="round" transform="translate(949.1666666666665 1128.2843137254881) rotate(0 267.5 179.9999999999999)"><path d="M90 0 M90 0 C186.34 1.41, 278.75 2.14, 445 0 M90 0 C162.68 0.82, 233.14 0.53, 445 0 M445 0 C501.54 -3.31, 532.79 33.17, 535 90 M445 0 C506.99 -1.18, 532.7 25.6, 535 90 M535 90 C537.75 149.97, 534.03 210.53, 535 270 M535 90 C532 159.35, 533.31 231.72, 535 270 M535 270 C534.64 327.85, 502.98 361.53, 445 360 M535 270 C534.84 334.41, 503.65 364.6, 445 360 M445 360 C335.97 363.3, 221.28 364.8, 90 360 M445 360 C370.11 357.25, 294.95 358.39, 90 360 M90 360 C33.58 359.14, 1.83 329.33, 0 270 M90 360 C31.86 362.3, -4.58 329.88, 0 270 M0 270 C0.81 231.29, -2.15 187.05, 0 90 M0 270 C-2.59 210.08, -0.46 151.99, 0 90 M0 90 C0.14 31.07, 27.02 3.75, 90 0 M0 90 C2.8 31.66, 30.72 -1.39, 90 0" stroke="#000000" stroke-width="4" fill="none"></path></g><g transform="translate(1062.3333333333335 1277.4509803921549) rotate(0 137.5 22)"><text x="0" y="35" font-family="Cascadia, Segoe UI Emoji" font-size="36px" fill="#000000" text-anchor="start" style="white-space: pre;" direction="ltr">Traefik Proxy</text></g><g stroke-linecap="round" transform="translate(4024.9999999999995 528.7009803921555) rotate(0 98.33333333333258 760.4166666666667)"><path d="M49.17 0 M49.17 0 C75 -2.74, 105.4 -0.56, 147.5 0 M49.17 0 C72.01 1.66, 94.86 -0.22, 147.5 0 M147.5 0 C179.16 -2.91, 193.61 16.34, 196.67 49.17 M147.5 0 C182.1 -0.1, 194.92 18.03, 196.67 49.17 M196.67 49.17 C197.04 399.69, 197.16 752.82, 196.67 1471.67 M196.67 49.17 C205.62 414.14, 206.39 778.5, 196.67 1471.67 M196.67 1471.67 C200.24 1503.06, 176.34 1518.61, 147.5 1520.83 M196.67 1471.67 C192.6 1504.26, 180.85 1519.85, 147.5 1520.83 M147.5 1520.83 C107.4 1521.09, 74.6 1519.41, 49.17 1520.83 M147.5 1520.83 C118.68 1521.48, 92.48 1524.42, 49.17 1520.83 M49.17 1520.83 C18.58 1522.79, 2.92 1501.02, 0 1471.67 M49.17 1520.83 C15.33 1524.29, -1.41 1505.78, 0 1471.67 M0 1471.67 C-10.41 1154.63, -11.36 836.52, 0 49.17 M0 1471.67 C-3.73 1031.83, -4.02 593.13, 0 49.17 M0 49.17 C2.23 16.75, 15.97 3.44, 49.17 0 M0 49.17 C-4.4 19.02, 19.71 2.25, 49.17 0" stroke="#000000" stroke-width="4" fill="none"></path></g><g transform="translate(4058.8333333333326 1176.117647058822) rotate(0 53.5 22)"><text x="53.5" y="35" font-family="Cascadia, Segoe UI Emoji" font-size="36px" fill="#000000" text-anchor="middle" style="white-space: pre;" direction="ltr">Kafka</text></g><g transform="translate(1159.833333333333 2264.117647058822) rotate(0 53.5 22)"><text x="53.5" y="35" font-family="Cascadia, Segoe UI Emoji" font-size="36px" fill="#000000" text-anchor="middle" style="white-space: pre;" direction="ltr">Redis</text></g><g stroke-linecap="round" transform="translate(1860.8333333333362 817.450980392156) rotate(0 262.5 108.75)"><path d="M54.38 0 M54.38 0 C192.87 -3.44, 330.62 -0.28, 470.63 0 M54.38 0 C202.37 3.24, 350.55 4.47, 470.63 0 M470.63 0 C504.19 -0.21, 527.97 18.54, 525 54.38 M470.63 0 C504.75 4.04, 525.63 15.3, 525 54.38 M525 54.38 C523.26 97.9, 529.99 140.04, 525 163.13 M525 54.38 C527.83 93.44, 526.4 137.35, 525 163.13 M525 163.13 C524.66 200.57, 510.3 221.41, 470.63 217.5 M525 163.13 C523.95 199.04, 506.44 220.72, 470.63 217.5 M470.63 217.5 C345.23 219.61, 217.06 221.71, 54.38 217.5 M470.63 217.5 C334.43 214.21, 198.27 214.8, 54.38 217.5 M54.38 217.5 C20.67 218.26, 1.59 198.85, 0 163.13 M54.38 217.5 C14.86 214.37, -3.27 195.41, 0 163.13 M0 163.13 C-0.13 122.46, -2.47 86.96, 0 54.38 M0 163.13 C1.16 136.69, 0.98 110.44, 0 54.38 M0 54.38 C-2.63 21.81, 15.24 0.6, 54.38 0 M0 54.38 C0.19 18.33, 14.61 -0.78, 54.38 0" stroke="#000000" stroke-width="4" fill="none"></path></g><g transform="translate(2051.333333333336 887.450980392156) rotate(0 74.5 44)"><text x="74.5" y="35" font-family="Cascadia, Segoe UI Emoji" font-size="36px" fill="#000000" text-anchor="middle" style="white-space: pre;" direction="ltr">Order </text><text x="74.5" y="79" font-family="Cascadia, Segoe UI Emoji" font-size="36px" fill="#000000" text-anchor="middle" style="white-space: pre;" direction="ltr">Service</text></g><g stroke-linecap="round" transform="translate(1868.3333333333353 1800.3676470588214) rotate(0 262.5 108.75)"><path d="M54.38 0 M54.38 0 C202.92 -2.1, 353.57 -4.56, 470.63 0 M54.38 0 C171.26 -0.43, 286.39 -2.04, 470.63 0 M470.63 0 C508.3 -1.14, 521.13 21.84, 525 54.38 M470.63 0 C503.13 -3.31, 526.85 15.75, 525 54.38 M525 54.38 C528.4 78.74, 523.23 100.91, 525 163.13 M525 54.38 C526.08 96.37, 523.93 140.11, 525 163.13 M525 163.13 C527.1 199.02, 509.44 215.99, 470.63 217.5 M525 163.13 C524.6 197.05, 503.85 214.34, 470.63 217.5 M470.63 217.5 C362.78 219.15, 258.39 217.2, 54.38 217.5 M470.63 217.5 C312.8 218.47, 155.29 219.49, 54.38 217.5 M54.38 217.5 C17.79 216.72, 2.32 198.51, 0 163.13 M54.38 217.5 C16.27 218.7, 4.45 199.37, 0 163.13 M0 163.13 C0.68 128.03, -2.74 96.14, 0 54.38 M0 163.13 C-0.96 131.5, -2.67 98.25, 0 54.38 M0 54.38 C3.66 17.07, 20.26 0.27, 54.38 0 M0 54.38 C-1.18 20.5, 18.8 -1.22, 54.38 0" stroke="#000000" stroke-width="4" fill="none"></path></g><g transform="translate(2046.3333333333353 1875.3676470588214) rotate(0 74.5 44)"><text x="74.5" y="35" font-family="Cascadia, Segoe UI Emoji" font-size="36px" fill="#000000" text-anchor="middle" style="white-space: pre;" direction="ltr">Product</text><text x="74.5" y="79" font-family="Cascadia, Segoe UI Emoji" font-size="36px" fill="#000000" text-anchor="middle" style="white-space: pre;" direction="ltr">Service</text></g><g stroke-linecap="round" transform="translate(3200.0000000000023 912.0343137254895) rotate(0 262.5 108.75)"><path d="M54.38 0 M54.38 0 C221.55 2.3, 384.37 2.95, 470.63 0 M54.38 0 C200.73 -2.97, 347.36 -3.59, 470.63 0 M470.63 0 C504.12 -1.72, 521.67 19.05, 525 54.38 M470.63 0 C505.11 1.32, 528.85 15.28, 525 54.38 M525 54.38 C524.18 93.45, 524.11 138.39, 525 163.13 M525 54.38 C524.14 85.28, 525.1 119.74, 525 163.13 M525 163.13 C525 199.88, 510.03 218.6, 470.63 217.5 M525 163.13 C527.76 198.12, 505.7 218.68, 470.63 217.5 M470.63 217.5 C344.67 222.95, 216.86 222.58, 54.38 217.5 M470.63 217.5 C307.78 219.62, 145.35 220.06, 54.38 217.5 M54.38 217.5 C17.06 215.72, -3.55 196.72, 0 163.13 M54.38 217.5 C22.46 220.94, -1.96 200.71, 0 163.13 M0 163.13 C-4 138.9, -2.08 106.79, 0 54.38 M0 163.13 C-0.67 124.42, -1.22 89.12, 0 54.38 M0 54.38 C1.63 19.99, 21.73 1.15, 54.38 0 M0 54.38 C1.16 18.22, 17 2.21, 54.38 0" stroke="#000000" stroke-width="4" fill="none"></path></g><g transform="translate(3237.6666666666692 987.0343137254895) rotate(0 211.5 22)"><text x="211.5" y="35" font-family="Cascadia, Segoe UI Emoji" font-size="36px" fill="#000000" text-anchor="middle" style="white-space: pre;" direction="ltr">Notification service</text></g><g stroke-linecap="round" transform="translate(1933.3333333333362 2252.034313725488) rotate(0 260.8333333333335 108.75)"><path d="M54.38 0 M54.38 0 C216.13 -2.96, 378.73 -2.09, 467.29 0 M54.38 0 C166.58 5.02, 281.04 3.53, 467.29 0 M467.29 0 C504.71 -1.7, 521.85 21.64, 521.67 54.38 M467.29 0 C499.06 4.35, 519.39 17.76, 521.67 54.38 M521.67 54.38 C525.44 87.24, 524.35 126.89, 521.67 163.13 M521.67 54.38 C523.26 91.93, 522.72 127.98, 521.67 163.13 M521.67 163.13 C523.59 201.93, 502.94 218.38, 467.29 217.5 M521.67 163.13 C521.76 195.08, 503.24 213.55, 467.29 217.5 M467.29 217.5 C345.83 212.43, 226.83 213.26, 54.38 217.5 M467.29 217.5 C309.51 219.05, 150.72 219.29, 54.38 217.5 M54.38 217.5 C20.04 217.34, 0.82 195.71, 0 163.13 M54.38 217.5 C16.17 215.36, -0.99 194.82, 0 163.13 M0 163.13 C-3.72 139.76, -2.77 116.73, 0 54.38 M0 163.13 C0.99 121.68, 0.7 76.9, 0 54.38 M0 54.38 C3.54 18.32, 19.16 -3.85, 54.38 0 M0 54.38 C-0.41 22.52, 17.62 0.59, 54.38 0" stroke="#000000" stroke-width="4" fill="none"></path></g><g transform="translate(2053.0000000000014 2323.700980392155) rotate(0 169.5 22)"><text x="169.5" y="35" font-family="Cascadia, Segoe UI Emoji" font-size="36px" fill="#000000" text-anchor="middle" style="white-space: pre;" direction="ltr">Accounts Service</text></g><g stroke-linecap="round" transform="translate(1623.3333333333326 10) rotate(0 1104.1666666666656 1377.450980392155)"><path d="M552.08 0 M552.08 0 C774.57 1.53, 999.18 2.51, 1656.25 0 M552.08 0 C776.6 6.93, 1001.35 7.24, 1656.25 0 M1656.25 0 C2027.67 1.2, 2210.33 182.73, 2208.33 552.08 M1656.25 0 C2026.1 -2.64, 2209.76 183.63, 2208.33 552.08 M2208.33 552.08 C2205.39 1016.29, 2204.98 1479.88, 2208.33 2202.82 M2208.33 552.08 C2207.33 1136.06, 2206.04 1719.75, 2208.33 2202.82 M2208.33 2202.82 C2211.34 2574.73, 2021.83 2751.35, 1656.25 2754.9 M2208.33 2202.82 C2210.71 2574.22, 2025.45 2751.25, 1656.25 2754.9 M1656.25 2754.9 C1432.97 2759.75, 1210.73 2759.33, 552.08 2754.9 M1656.25 2754.9 C1276.69 2746.04, 895.16 2745.57, 552.08 2754.9 M552.08 2754.9 C187.44 2754.25, -1.59 2567.56, 0 2202.82 M552.08 2754.9 C184.13 2751.59, 0.13 2568.88, 0 2202.82 M0 2202.82 C-5.87 1793.05, -5.54 1385.75, 0 552.08 M0 2202.82 C-8.97 1552.46, -8.6 900.24, 0 552.08 M0 552.08 C-2.49 181.44, 185.64 3.91, 552.08 0 M0 552.08 C4.58 186.63, 181.4 -2.36, 552.08 0" stroke="#000000" stroke-width="4" fill="none"></path></g><g stroke-linecap="round"><g transform="translate(1196.1809060820956 1494.1176470588218) rotate(0 -1.8360920286927467 183.73616532225435)"><path d="M0.13 -0.77 C-0.22 60.16, -2.49 305.47, -2.72 366.69 M-1.26 1.45 C-1.74 63.09, -3.78 307.17, -3.8 368.24" stroke="#000000" stroke-width="4" fill="none"></path></g><g transform="translate(1196.1809060820956 1494.1176470588218) rotate(0 -1.8360920286927467 183.73616532225435)"><path d="M-15.2 339.57 C-11.1 348.99, -8.77 355.1, -5.33 368.92 M-13.96 339.25 C-9.77 350.78, -5.37 362.61, -4.35 367.5" stroke="#000000" stroke-width="4" fill="none"></path></g><g transform="translate(1196.1809060820956 1494.1176470588218) rotate(0 -1.8360920286927467 183.73616532225435)"><path d="M5.32 339.67 C4.31 349.09, 1.53 355.18, -5.33 368.92 M6.56 339.35 C2.62 350.77, -1.11 362.57, -4.35 367.5" stroke="#000000" stroke-width="4" fill="none"></path></g></g><g stroke-linecap="round" transform="translate(2594.1666666666674 1782.0343137254874) rotate(0 262.5 108.75)"><path d="M54.38 0 M54.38 0 C158.55 -2.13, 266.56 -1.91, 470.63 0 M54.38 0 C212.1 3.47, 371.58 3.59, 470.63 0 M470.63 0 C510.43 1.56, 521.53 14.24, 525 54.38 M470.63 0 C506.56 0.16, 522.33 20.72, 525 54.38 M525 54.38 C521.22 81.86, 528.43 105.67, 525 163.13 M525 54.38 C522.53 89.98, 524.11 127.77, 525 163.13 M525 163.13 C525.32 199.28, 510.3 215.26, 470.63 217.5 M525 163.13 C522.86 202.64, 502.45 217.84, 470.63 217.5 M470.63 217.5 C316.83 218.33, 164.5 217.14, 54.38 217.5 M470.63 217.5 C321.81 217.5, 173.06 218.24, 54.38 217.5 M54.38 217.5 C17.1 214.5, 2.19 202.86, 0 163.13 M54.38 217.5 C18.46 221.65, 4.57 196.17, 0 163.13 M0 163.13 C-0.25 129.59, -4.53 93.26, 0 54.38 M0 163.13 C-0.18 131.25, 0.69 100.71, 0 54.38 M0 54.38 C-3.96 21.66, 17.27 -3.65, 54.38 0 M0 54.38 C-3.56 19.61, 16.86 -1.16, 54.38 0" stroke="#000000" stroke-width="4" fill="none"></path></g><g transform="translate(2751.6666666666674 1857.0343137254874) rotate(0 95 44)"><text x="95" y="35" font-family="Cascadia, Segoe UI Emoji" font-size="36px" fill="#000000" text-anchor="middle" style="white-space: pre;" direction="ltr">Discount </text><text x="95" y="79" font-family="Cascadia, Segoe UI Emoji" font-size="36px" fill="#000000" text-anchor="middle" style="white-space: pre;" direction="ltr">Service</text></g><g stroke-linecap="round" transform="translate(2037.4999999999986 2465.367647058821) rotate(0 152.5 108.75)"><path d="M54.38 0 M54.38 0 C115.47 -4.98, 168.99 -3.81, 250.63 0 M54.38 0 C119.78 -1.44, 183.72 -1.96, 250.63 0 M250.63 0 C287.79 -1, 308.05 19.78, 305 54.38 M250.63 0 C283.77 -1.86, 309.4 20.99, 305 54.38 M305 54.38 C307.07 81.04, 304.6 103.61, 305 163.13 M305 54.38 C304.08 91.65, 305.55 129.02, 305 163.13 M305 163.13 C303.59 202.21, 283.18 219.43, 250.63 217.5 M305 163.13 C309.49 196.96, 287.78 215.77, 250.63 217.5 M250.63 217.5 C191.64 217.4, 127.3 214.97, 54.38 217.5 M250.63 217.5 C173.33 214.31, 98.4 216.35, 54.38 217.5 M54.38 217.5 C17.27 219.39, -2.62 200.97, 0 163.13 M54.38 217.5 C16.41 220.14, -3.35 195.09, 0 163.13 M0 163.13 C-3.83 130.57, -1.37 90.42, 0 54.38 M0 163.13 C2.17 120.7, 1.89 76.1, 0 54.38 M0 54.38 C3.23 14.77, 21.96 -3.61, 54.38 0 M0 54.38 C2.57 20.36, 22.71 0.28, 54.38 0" stroke="#000000" stroke-width="4" fill="none"></path></g><g transform="translate(2084.0000000000005 2559.950980392155) rotate(0 106 22)"><text x="106" y="35" font-family="Cascadia, Segoe UI Emoji" font-size="36px" fill="#000000" text-anchor="middle" style="white-space: pre;" direction="ltr">PostgreSQL</text></g><g stroke-linecap="round" transform="translate(1970.0000000000014 1037.450980392155) rotate(0 155 80)"><path d="M40 0 M40 0 C97.59 -0.9, 154.08 1.84, 270 0 M40 0 C106.69 -1.28, 171.77 -1.05, 270 0 M270 0 C295.47 0.11, 310.71 14.84, 310 40 M270 0 C297 2.26, 311.44 13.37, 310 40 M310 40 C310.17 56.94, 310.51 75.36, 310 120 M310 40 C310.85 64.08, 310.03 88.21, 310 120 M310 120 C309.42 148.4, 296.52 159.88, 270 160 M310 120 C312.26 147.21, 295.8 162.21, 270 160 M270 160 C206.23 159, 143.96 158.78, 40 160 M270 160 C189.83 159.79, 109.95 159.81, 40 160 M40 160 C14.55 159.76, -0.11 144.97, 0 120 M40 160 C14.57 161.19, 1.31 144.6, 0 120 M0 120 C2.05 97.65, -1.59 73.63, 0 40 M0 120 C-0.32 89.03, -0.08 59.57, 0 40 M0 40 C-1.43 11.93, 14.2 1.87, 40 0 M0 40 C1.23 11.92, 14.97 1.51, 40 0" stroke="#000000" stroke-width="4" fill="none"></path></g><g transform="translate(1975.0000000000014 1095.450980392155) rotate(0 150 25)"><text x="150" y="38" font-family="Cascadia, Segoe UI Emoji" font-size="36px" fill="#000000" text-anchor="middle" style="white-space: pre;" direction="ltr">MongoDB</text></g><g stroke-linecap="round"><g transform="translate(1512.5485770979271 1218.9946845777658) rotate(0 168.63149818509942 -85.20270958515187)"><path d="M-0.78 0.63 C55.05 -27.78, 279.79 -142.43, 335.9 -171.04 M1 -0.08 C57.12 -28.26, 281.85 -141.39, 338.05 -169.68" stroke="#000000" stroke-width="4" fill="none"></path></g><g transform="translate(1512.5485770979271 1218.9946845777658) rotate(0 168.63149818509942 -85.20270958515187)"><path d="M318.53 -149.64 C324.69 -157.7, 332.45 -162.24, 339.69 -168.88 M316.64 -147.57 C321.74 -151.82, 327.68 -157.94, 337.84 -169.54" stroke="#000000" stroke-width="4" fill="none"></path></g><g transform="translate(1512.5485770979271 1218.9946845777658) rotate(0 168.63149818509942 -85.20270958515187)"><path d="M309.31 -167.97 C318.82 -169.12, 330.03 -166.81, 339.69 -168.88 M307.41 -165.9 C314.74 -165.88, 322.81 -167.77, 337.84 -169.54" stroke="#000000" stroke-width="4" fill="none"></path></g></g><g stroke-linecap="round"><g transform="translate(1436.766474215507 1102.9750037668282) rotate(0 181.08413135272417 -335.04832381979907)"><path d="M0.61 0.11 C61.08 -111.26, 302.49 -556.84, 362.69 -668.48 M-0.52 -0.87 C59.88 -112.57, 301.99 -558.92, 362.28 -670.21" stroke="#000000" stroke-width="4" fill="none"></path></g><g transform="translate(1436.766474215507 1102.9750037668282) rotate(0 181.08413135272417 -335.04832381979907)"><path d="M358.05 -638.85 C360.44 -648.92, 359.7 -658.77, 362 -668.47 M357.7 -640.68 C358.91 -651.08, 361.1 -660.53, 362.11 -670.48" stroke="#000000" stroke-width="4" fill="none"></path></g><g transform="translate(1436.766474215507 1102.9750037668282) rotate(0 181.08413135272417 -335.04832381979907)"><path d="M340.01 -648.63 C347.63 -655.94, 352.15 -662.94, 362 -668.47 M339.66 -650.46 C347.18 -657.38, 355.63 -663.44, 362.11 -670.48" stroke="#000000" stroke-width="4" fill="none"></path></g></g><g stroke-linecap="round" transform="translate(1983.3333333333344 2020.7843137254883) rotate(0 145 88.33333333333337)"><path d="M44.17 0 M44.17 0 C108.73 -0.26, 175.65 1.01, 245.83 0 M44.17 0 C87.54 1.51, 132.38 0.38, 245.83 0 M245.83 0 C275.97 -0.59, 290.38 14.92, 290 44.17 M245.83 0 C275.98 -1.11, 291.87 15.4, 290 44.17 M290 44.17 C291.19 67.21, 288.4 92.79, 290 132.5 M290 44.17 C290.66 67.4, 290.17 87.94, 290 132.5 M290 132.5 C289.05 163.77, 273.53 176.53, 245.83 176.67 M290 132.5 C288.95 163.32, 273.36 177.61, 245.83 176.67 M245.83 176.67 C180.78 173.65, 118.95 175.02, 44.17 176.67 M245.83 176.67 C167.56 175.02, 91.28 175.41, 44.17 176.67 M44.17 176.67 C13.11 176.64, -1.87 163.41, 0 132.5 M44.17 176.67 C16.89 177.26, -1.34 163.71, 0 132.5 M0 132.5 C1.25 108.23, 1.87 84.73, 0 44.17 M0 132.5 C0.01 113.9, -1.54 94.47, 0 44.17 M0 44.17 C0.72 14.7, 13.11 0.87, 44.17 0 M0 44.17 C1.14 12.78, 14.83 -0.94, 44.17 0" stroke="#000000" stroke-width="4" fill="none"></path></g><g transform="translate(2017.3333333333353 2076.6176470588216) rotate(0 106 22)"><text x="106" y="35" font-family="Cascadia, Segoe UI Emoji" font-size="36px" fill="#000000" text-anchor="middle" style="white-space: pre;" direction="ltr">PostgreSQL</text></g><g stroke-linecap="round" transform="translate(1780.8333333333344 187.45098039215577) rotate(0 262.5 108.75)"><path d="M54.38 0 M54.38 0 C166.35 0.47, 281.01 0.69, 470.63 0 M54.38 0 C212.68 2.6, 369.36 2, 470.63 0 M470.63 0 C503.03 0.51, 521.9 20.47, 525 54.38 M470.63 0 C503.1 4.48, 526.99 14.83, 525 54.38 M525 54.38 C526.61 79.19, 522.55 106.91, 525 163.13 M525 54.38 C521.8 92.77, 524.95 133.7, 525 163.13 M525 163.13 C523.64 198.98, 506.79 215.46, 470.63 217.5 M525 163.13 C526.17 197.91, 506.41 217.54, 470.63 217.5 M470.63 217.5 C305.88 222.78, 139.76 221.27, 54.38 217.5 M470.63 217.5 C333.02 218.22, 196.84 217.27, 54.38 217.5 M54.38 217.5 C14.44 216.63, -2.28 202.51, 0 163.13 M54.38 217.5 C20.1 216.12, -3.07 195.42, 0 163.13 M0 163.13 C2.43 123.66, 0.5 73.7, 0 54.38 M0 163.13 C-2.04 131.74, -2.05 96.54, 0 54.38 M0 54.38 C2.38 20.99, 16.81 -1.33, 54.38 0 M0 54.38 C-3.48 19.65, 15.29 4.23, 54.38 0" stroke="#000000" stroke-width="4" fill="none"></path></g><g transform="translate(1971.3333333333344 257.45098039215577) rotate(0 74.5 44)"><text x="74.5" y="35" font-family="Cascadia, Segoe UI Emoji" font-size="36px" fill="#000000" text-anchor="middle" style="white-space: pre;" direction="ltr">Basket </text><text x="74.5" y="79" font-family="Cascadia, Segoe UI Emoji" font-size="36px" fill="#000000" text-anchor="middle" style="white-space: pre;" direction="ltr">Service</text></g><g stroke-linecap="round" transform="translate(1890.0000000000005 407.45098039215486) rotate(0 155 80)"><path d="M40 0 M40 0 C101.47 0.3, 163.63 -0.67, 270 0 M40 0 C99.9 -1.46, 160.47 -1.64, 270 0 M270 0 C295.12 1.17, 308.36 15.28, 310 40 M270 0 C297.66 -1.65, 308.34 11.06, 310 40 M310 40 C310.6 69.36, 312.1 94.14, 310 120 M310 40 C310.24 67.87, 309.07 96.24, 310 120 M310 120 C309.96 145.65, 297.18 159.36, 270 160 M310 120 C309.77 146.69, 298.93 160.25, 270 160 M270 160 C179.25 160.36, 87.82 162.19, 40 160 M270 160 C197.47 158.91, 122.51 159.57, 40 160 M40 160 C12.19 161.57, 0.86 146.07, 0 120 M40 160 C11.8 158.02, 2.23 145.31, 0 120 M0 120 C-0.62 98.8, -0.15 82.02, 0 40 M0 120 C-0.07 96.68, 0.83 74.53, 0 40 M0 40 C-0.66 12.67, 11.82 0.66, 40 0 M0 40 C-1.42 15.45, 12.51 -0.14, 40 0" stroke="#000000" stroke-width="4" fill="none"></path></g><g transform="translate(1895.0000000000005 465.45098039215486) rotate(0 150 22)"><text x="150" y="35" font-family="Cascadia, Segoe UI Emoji" font-size="36px" fill="#000000" text-anchor="middle" style="white-space: pre;" direction="ltr">MongoDB</text></g><g stroke-linecap="round"><g transform="translate(1452.6261084085882 1494.1176470588211) rotate(0 199.0643063470079 169.69498827017208)"><path d="M0.51 0.55 C66.75 56.96, 330.27 282.28, 396.54 338.69 M-0.69 -0.21 C66.01 56.29, 332.4 282.92, 398.82 339.6" stroke="#000000" stroke-width="4" fill="none"></path></g><g transform="translate(1452.6261084085882 1494.1176470588211) rotate(0 199.0643063470079 169.69498827017208)"><path d="M371.61 327.74 C375.03 332.67, 381.88 333.88, 397.55 341.26 M369.8 329.43 C378.69 332.65, 386.87 334.88, 399.35 338.96" stroke="#000000" stroke-width="4" fill="none"></path></g><g transform="translate(1452.6261084085882 1494.1176470588211) rotate(0 199.0643063470079 169.69498827017208)"><path d="M384.92 312.12 C385.38 320.61, 389.24 325.32, 397.55 341.26 M383.11 313.81 C388.27 321.32, 392.78 327.85, 399.35 338.96" stroke="#000000" stroke-width="4" fill="none"></path></g></g><g stroke-linecap="round" transform="translate(2434.1666666666674 364.1176470588223) rotate(0 262.5 108.75)"><path d="M54.38 0 M54.38 0 C181.19 -1.49, 302.65 -0.03, 470.63 0 M54.38 0 C196.49 1.63, 335.8 3.02, 470.63 0 M470.63 0 C508.34 2.28, 522.16 21.11, 525 54.38 M470.63 0 C507.32 -2.27, 521.88 17.8, 525 54.38 M525 54.38 C528.83 82.85, 526.01 111.02, 525 163.13 M525 54.38 C524.23 80.21, 524.22 102.96, 525 163.13 M525 163.13 C526.6 203.16, 506.19 218.51, 470.63 217.5 M525 163.13 C522.5 197.9, 510.96 213.17, 470.63 217.5 M470.63 217.5 C369.84 215.17, 268.07 218.09, 54.38 217.5 M470.63 217.5 C348.81 216.38, 227.49 215.48, 54.38 217.5 M54.38 217.5 C20.2 215.83, -0.03 202.84, 0 163.13 M54.38 217.5 C20.24 217.2, -3.99 196.35, 0 163.13 M0 163.13 C0.63 138, -2.27 107.18, 0 54.38 M0 163.13 C0.52 140.01, -1.87 111.42, 0 54.38 M0 54.38 C-0.48 16.5, 20.01 1.5, 54.38 0 M0 54.38 C0.83 15.3, 15.16 3.99, 54.38 0" stroke="#000000" stroke-width="4" fill="none"></path></g><g transform="translate(2604.1666666666674 434.1176470588223) rotate(0 95 44)"><text x="95" y="35" font-family="Cascadia, Segoe UI Emoji" font-size="36px" fill="#000000" text-anchor="middle" style="white-space: pre;" direction="ltr">Delivery </text><text x="95" y="79" font-family="Cascadia, Segoe UI Emoji" font-size="36px" fill="#000000" text-anchor="middle" style="white-space: pre;" direction="ltr">Service</text></g><g stroke-linecap="round" transform="translate(2543.3333333333353 584.1176470588214) rotate(0 155 80)"><path d="M40 0 M40 0 C114.43 1.17, 192.49 1.26, 270 0 M40 0 C95.91 1.89, 153.64 1.89, 270 0 M270 0 C295.25 1.49, 310.19 12.35, 310 40 M270 0 C295.11 -0.16, 309.08 14.42, 310 40 M310 40 C310.55 67.63, 309.12 93.61, 310 120 M310 40 C310.85 61.4, 310.78 84.74, 310 120 M310 120 C309.66 147.17, 295.58 159.36, 270 160 M310 120 C312.04 144.5, 295.35 158.87, 270 160 M270 160 C204 159.42, 138.34 158.14, 40 160 M270 160 C205.29 158.84, 142.16 159.33, 40 160 M40 160 C13.32 161.73, 0.92 146.54, 0 120 M40 160 C11.34 158.49, -1.11 146.28, 0 120 M0 120 C-1.37 93.91, -1.45 69.15, 0 40 M0 120 C-1.13 89.8, -0.4 60.81, 0 40 M0 40 C0.94 14.08, 13.69 -1.23, 40 0 M0 40 C-1.48 15.33, 13.87 -1.92, 40 0" stroke="#000000" stroke-width="4" fill="none"></path></g><g transform="translate(2548.3333333333353 642.1176470588214) rotate(0 150 22)"><text x="150" y="35" font-family="Cascadia, Segoe UI Emoji" font-size="36px" fill="#000000" text-anchor="middle" style="white-space: pre;" direction="ltr">PostgreSQL</text></g><g stroke-linecap="round"><g transform="translate(1491.5030841763005 1122.7884283644094) rotate(0 463.791378424557 -310.2512883432342)"><path d="M0.59 0.1 C155.11 -102.87, 773.59 -515.7, 928.14 -618.82 M-0.56 -0.9 C153.68 -104.12, 772.44 -517.33, 927.01 -620.6" stroke="#000000" stroke-width="4" fill="none"></path></g><g transform="translate(1491.5030841763005 1122.7884283644094) rotate(0 463.791378424557 -310.2512883432342)"><path d="M909.42 -597 C917.4 -606.78, 924.61 -615.55, 925.56 -618.74 M908.58 -595.62 C912.36 -601.84, 917.47 -606.4, 926.43 -620.65" stroke="#000000" stroke-width="4" fill="none"></path></g><g transform="translate(1491.5030841763005 1122.7884283644094) rotate(0 463.791378424557 -310.2512883432342)"><path d="M898.02 -614.06 C910.25 -617.32, 921.85 -619.51, 925.56 -618.74 M897.18 -612.68 C903.43 -615.36, 910.91 -616.36, 926.43 -620.65" stroke="#000000" stroke-width="4" fill="none"></path></g></g><g stroke-linecap="round"><g transform="translate(2076.7131889700763 570.7843137254886) rotate(0 26.345007136977074 111.71011215725613)"><path d="M0.61 0.53 C9.32 37.66, 42.48 186.65, 51.11 223.66 M-0.52 -0.24 C8.62 36.45, 44.51 184.42, 53.21 221.71" stroke="#000000" stroke-width="4" fill="none"></path></g><g transform="translate(2076.7131889700763 570.7843137254886) rotate(0 26.345007136977074 111.71011215725613)"><path d="M37.56 194.72 C40.87 202.01, 42.55 206.48, 55.02 220.06 M35.94 196.16 C41.38 203.15, 45.53 210.65, 52.53 221.9" stroke="#000000" stroke-width="4" fill="none"></path></g><g transform="translate(2076.7131889700763 570.7843137254886) rotate(0 26.345007136977074 111.71011215725613)"><path d="M57.52 189.96 C56.68 198.35, 54.19 203.81, 55.02 220.06 M55.9 191.4 C56.15 199.78, 55.05 208.54, 52.53 221.9" stroke="#000000" stroke-width="4" fill="none"></path></g></g><g stroke-linecap="round" transform="translate(2497.5000000000023 1100.784313725489) rotate(0 262.5 108.75)"><path d="M54.38 0 M54.38 0 C136.85 -3.2, 223.59 -0.48, 470.63 0 M54.38 0 C167.3 -0.11, 279.79 0.23, 470.63 0 M470.63 0 C508.44 -3.53, 528.62 18.2, 525 54.38 M470.63 0 C503.2 0.14, 523.55 18.07, 525 54.38 M525 54.38 C519.58 82.31, 524.24 108.43, 525 163.13 M525 54.38 C525.56 86.37, 527 120.16, 525 163.13 M525 163.13 C525.57 197.83, 504.04 216.82, 470.63 217.5 M525 163.13 C522.48 202.59, 505.03 221.68, 470.63 217.5 M470.63 217.5 C369.81 217.62, 268.09 215.73, 54.38 217.5 M470.63 217.5 C315.82 221.06, 159 221.72, 54.38 217.5 M54.38 217.5 C21.77 215.22, -0.56 199.2, 0 163.13 M54.38 217.5 C14.05 220.92, 0.84 198.81, 0 163.13 M0 163.13 C1.59 124.85, -2.94 97.36, 0 54.38 M0 163.13 C-1.28 131.74, -1.86 98.11, 0 54.38 M0 54.38 C-0.64 19.48, 17.05 0.9, 54.38 0 M0 54.38 C-0.26 17.71, 15.74 -2.79, 54.38 0" stroke="#000000" stroke-width="4" fill="none"></path></g><g transform="translate(2684.6666666666683 1170.784313725489) rotate(0 84.5 44)"><text x="84.5" y="35" font-family="Cascadia, Segoe UI Emoji" font-size="36px" fill="#000000" text-anchor="middle" style="white-space: pre;" direction="ltr">Payment </text><text x="84.5" y="79" font-family="Cascadia, Segoe UI Emoji" font-size="36px" fill="#000000" text-anchor="middle" style="white-space: pre;" direction="ltr">Service</text></g><g stroke-linecap="round" transform="translate(2613.333333333336 1320.7843137254881) rotate(0 155 80)"><path d="M40 0 M40 0 C118.63 2.32, 194.4 0.92, 270 0 M40 0 C108.12 0.44, 177.66 -0.44, 270 0 M270 0 C298.48 0.04, 308.4 13.39, 310 40 M270 0 C295.94 -0.03, 309.04 11.44, 310 40 M310 40 C309.79 68.26, 309.21 100.42, 310 120 M310 40 C309.5 57.36, 309.6 73.12, 310 120 M310 120 C308.58 146.33, 295.57 161.4, 270 160 M310 120 C309.08 148.75, 295.35 160.43, 270 160 M270 160 C198.67 158.08, 129.4 158.52, 40 160 M270 160 C184.32 161.44, 99.95 160.15, 40 160 M40 160 C13.05 159.91, -1.77 148.16, 0 120 M40 160 C13.75 159.72, 0.46 146.81, 0 120 M0 120 C-1.75 100.62, -0.42 77.42, 0 40 M0 120 C-0.42 99.95, 0.34 80.84, 0 40 M0 40 C-0.54 13.78, 13.22 -0.18, 40 0 M0 40 C-1.19 11.94, 15.4 -0.23, 40 0" stroke="#000000" stroke-width="4" fill="none"></path></g><g transform="translate(2618.333333333336 1378.7843137254881) rotate(0 150 22)"><text x="150" y="35" font-family="Cascadia, Segoe UI Emoji" font-size="36px" fill="#000000" text-anchor="middle" style="white-space: pre;" direction="ltr">PostgreSQL</text></g><g stroke-linecap="round"><g transform="translate(2584.5978084045996 1099.784313725489) rotate(0 -90.66138894340156 -36.79103156479232)"><path d="M0.51 0.15 C-29.77 -11.71, -150.89 -59.92, -181.02 -72.09 M-0.68 -0.82 C-31.16 -12.93, -151.86 -61.95, -181.83 -73.73" stroke="#000000" stroke-width="4" fill="none"></path></g><g transform="translate(2584.5978084045996 1099.784313725489) rotate(0 -90.66138894340156 -36.79103156479232)"><path d="M-151.6 -72.36 C-161.02 -71.32, -173.03 -75.23, -181.24 -75.36 M-151.59 -72.14 C-158.89 -71.93, -166.28 -72.88, -180.85 -74.07" stroke="#000000" stroke-width="4" fill="none"></path></g><g transform="translate(2584.5978084045996 1099.784313725489) rotate(0 -90.66138894340156 -36.79103156479232)"><path d="M-159.23 -53.31 C-165.78 -59.1, -175.06 -69.82, -181.24 -75.36 M-159.22 -53.09 C-164.74 -57.36, -170.37 -62.72, -180.85 -74.07" stroke="#000000" stroke-width="4" fill="none"></path></g></g><g stroke-linecap="round" transform="translate(1857.5000000000023 1332.242647058822) rotate(0 262.5 108.75)"><path d="M54.38 0 M54.38 0 C179.21 2.31, 302 3.02, 470.63 0 M54.38 0 C215.29 -4.53, 376.88 -3.53, 470.63 0 M470.63 0 C505.36 0.02, 523.97 20.21, 525 54.38 M470.63 0 C502.47 -1.65, 523.57 22.66, 525 54.38 M525 54.38 C524.11 89.87, 522.28 126.11, 525 163.13 M525 54.38 C526.08 80.97, 524.89 110.77, 525 163.13 M525 163.13 C528.75 201.49, 503.57 214.47, 470.63 217.5 M525 163.13 C521.69 200.07, 503.24 212.97, 470.63 217.5 M470.63 217.5 C333.11 220.81, 195.96 221.2, 54.38 217.5 M470.63 217.5 C324.68 215.57, 179.71 215.93, 54.38 217.5 M54.38 217.5 C14.31 215.13, 2.7 200.84, 0 163.13 M54.38 217.5 C15.07 214.2, -1.23 202.06, 0 163.13 M0 163.13 C0.5 128.2, 3.28 100.94, 0 54.38 M0 163.13 C-3.86 140.08, -1.49 112.07, 0 54.38 M0 54.38 C-1.32 19, 15.78 -1.73, 54.38 0 M0 54.38 C-2.4 16.52, 14.86 -4.15, 54.38 0" stroke="#000000" stroke-width="4" fill="none"></path></g><g transform="translate(2015.0000000000023 1400.575980392155) rotate(0 95 44)"><text x="95" y="35" font-family="Cascadia, Segoe UI Emoji" font-size="36px" fill="#000000" text-anchor="middle" style="white-space: pre;" direction="ltr">Category </text><text x="95" y="79" font-family="Cascadia, Segoe UI Emoji" font-size="36px" fill="#000000" text-anchor="middle" style="white-space: pre;" direction="ltr">Service</text></g><g stroke-linecap="round" transform="translate(1972.5000000000005 1552.659313725489) rotate(0 145 88.33333333333326)"><path d="M44.17 0 M44.17 0 C90.63 0.59, 140.62 1.81, 245.83 0 M44.17 0 C119.78 1.69, 196.36 1.72, 245.83 0 M245.83 0 C274.76 1.04, 288.09 14, 290 44.17 M245.83 0 C274.56 2.27, 290.74 13.5, 290 44.17 M290 44.17 C289.28 77.35, 289.18 112.3, 290 132.5 M290 44.17 C289.18 69.19, 290.83 94.03, 290 132.5 M290 132.5 C288.35 160.43, 273.84 176.97, 245.83 176.67 M290 132.5 C288.18 159.68, 275.96 177.76, 245.83 176.67 M245.83 176.67 C165.41 175.21, 86.4 175.02, 44.17 176.67 M245.83 176.67 C190.21 175.19, 134.96 174.95, 44.17 176.67 M44.17 176.67 C16.07 177.4, -1.33 160.51, 0 132.5 M44.17 176.67 C14.11 178.01, -0.32 162.35, 0 132.5 M0 132.5 C1.64 108.48, -1.64 86.32, 0 44.17 M0 132.5 C1.08 97.04, 0.45 63.26, 0 44.17 M0 44.17 C-1.17 13.86, 13.68 -0.7, 44.17 0 M0 44.17 C-1.63 12.65, 15.8 -0.91, 44.17 0" stroke="#000000" stroke-width="4" fill="none"></path></g><g transform="translate(2038.0000000000023 1608.492647058822) rotate(0 74.5 22)"><text x="74.5" y="35" font-family="Cascadia, Segoe UI Emoji" font-size="36px" fill="#000000" text-anchor="middle" style="white-space: pre;" direction="ltr">MongoDB</text></g><g stroke-linecap="round"><g transform="translate(1493.3333333333335 1338.0685514154236) rotate(0 168.22407641759514 30.627908703291723)"><path d="M0.21 -0.87 C56.37 9.68, 281.68 51.93, 337.59 62.13 M-1.14 1.29 C54.89 11.62, 280.59 50.54, 337.13 60.52" stroke="#000000" stroke-width="4" fill="none"></path></g><g transform="translate(1493.3333333333335 1338.0685514154236) rotate(0 168.22407641759514 30.627908703291723)"><path d="M306.14 67.33 C319.66 62.26, 327.01 60.64, 335.88 60.11 M307.83 65.8 C313.95 64.63, 321.7 63.25, 336.3 60.69" stroke="#000000" stroke-width="4" fill="none"></path></g><g transform="translate(1493.3333333333335 1338.0685514154236) rotate(0 168.22407641759514 30.627908703291723)"><path d="M309.67 47.11 C321.75 49.14, 327.86 54.62, 335.88 60.11 M311.36 45.58 C316.84 49.15, 323.76 52.49, 336.3 60.69" stroke="#000000" stroke-width="4" fill="none"></path></g></g><g stroke-linecap="round"><g transform="translate(2416.6666666666683 1945.9712937333716) rotate(0 73.6624531406278 -29.968515660357525)"><path d="M-0.65 -0.62 C24.04 -10.38, 123.2 -49.68, 147.98 -59.72 M1.2 1.67 C25.82 -8.35, 122.98 -51.35, 147.37 -61.6" stroke="#000000" stroke-width="4" fill="none"></path></g><g transform="translate(2416.6666666666683 1945.9712937333716) rotate(0 73.6624531406278 -29.968515660357525)"><path d="M124.54 -39.9 C132.72 -45.6, 137.05 -53.38, 147.04 -61.34 M125.08 -40.69 C133.09 -48.14, 141.34 -56.48, 147.74 -62.14" stroke="#000000" stroke-width="4" fill="none"></path></g><g transform="translate(2416.6666666666683 1945.9712937333716) rotate(0 73.6624531406278 -29.968515660357525)"><path d="M116.39 -58.74 C126.69 -59.05, 133.34 -61.49, 147.04 -61.34 M116.93 -59.52 C127.93 -59.94, 139.19 -61.32, 147.74 -62.14" stroke="#000000" stroke-width="4" fill="none"></path></g></g><g stroke-linecap="round" transform="translate(2681.6666666666674 2000.784313725488) rotate(0 155 80.00000000000011)"><path d="M40 0 M40 0 C116.69 -2.17, 193.44 -1.83, 270 0 M40 0 C129.84 -0.92, 217.76 -0.61, 270 0 M270 0 C295.66 -0.97, 311.65 13.06, 310 40 M270 0 C294.76 0.23, 308.78 13.75, 310 40 M310 40 C311.95 70.96, 311.78 99, 310 120 M310 40 C309.83 62.6, 309.16 84.82, 310 120 M310 120 C311.67 145.05, 295.16 161.25, 270 160 M310 120 C312.29 145.76, 298.16 159.77, 270 160 M270 160 C186.22 161.48, 101.94 161.36, 40 160 M270 160 C188.04 159.29, 106.4 159.83, 40 160 M40 160 C12.26 160.56, 1.14 146.16, 0 120 M40 160 C11.23 159.57, -1.9 145.67, 0 120 M0 120 C0.55 97.62, -0.07 75.41, 0 40 M0 120 C-0.83 103.54, 0.18 86.02, 0 40 M0 40 C0.51 13.91, 13.74 -1.53, 40 0 M0 40 C0.11 11.19, 14.51 1.7, 40 0" stroke="#000000" stroke-width="4" fill="none"></path></g><g transform="translate(2686.6666666666674 2058.784313725488) rotate(0 150 22)"><text x="150" y="35" font-family="Cascadia, Segoe UI Emoji" font-size="36px" fill="#000000" text-anchor="middle" style="white-space: pre;" direction="ltr">MongoDB</text></g><g stroke-linecap="round" transform="translate(3305.0000000000014 1135.7843137254893) rotate(0 155 80)"><path d="M40 0 M40 0 C125.91 -0.04, 210.53 -2.28, 270 0 M40 0 C119.23 1.54, 198.67 1.68, 270 0 M270 0 C295.68 -1.29, 310.33 12.25, 310 40 M270 0 C296.35 -0.53, 310.17 12.03, 310 40 M310 40 C310.74 66.41, 310.67 94.84, 310 120 M310 40 C308.98 63.08, 308.88 85.58, 310 120 M310 120 C311.99 147.74, 297.59 158.12, 270 160 M310 120 C309.07 146.71, 298.83 158.4, 270 160 M270 160 C183.18 162.82, 98.94 159.89, 40 160 M270 160 C183.67 159.43, 98.07 158.95, 40 160 M40 160 C11.51 159.98, 0.68 145.37, 0 120 M40 160 C14.17 158.83, -1.57 144.44, 0 120 M0 120 C-1.72 97.45, 0.21 79.67, 0 40 M0 120 C0.42 100.19, 0.79 82.68, 0 40 M0 40 C1.5 13.39, 13.93 -1.41, 40 0 M0 40 C-2.17 14.45, 14.05 -0.25, 40 0" stroke="#000000" stroke-width="4" fill="none"></path></g><g transform="translate(3310.0000000000014 1193.7843137254893) rotate(0 150 22)"><text x="150" y="35" font-family="Cascadia, Segoe UI Emoji" font-size="36px" fill="#000000" text-anchor="middle" style="white-space: pre;" direction="ltr">MongoDB</text></g><g stroke-linecap="round"><g transform="translate(2398.3333333333344 947.1627346674525) rotate(0 390.99867224778654 10.956371822827236)"><path d="M0.41 0.48 C130.89 4.02, 652.53 18.76, 782.83 22.23 M-0.84 -0.32 C129.45 2.82, 650.72 16.82, 781.62 20.65" stroke="#000000" stroke-width="4" fill="none"></path></g><g transform="translate(2398.3333333333344 947.1627346674525) rotate(0 390.99867224778654 10.956371822827236)"><path d="M753.95 29.29 C763.18 25.42, 770 24.48, 780.97 20.69 M753.21 30.81 C765 26.88, 774.06 23.27, 781.43 20.54" stroke="#000000" stroke-width="4" fill="none"></path></g><g transform="translate(2398.3333333333344 947.1627346674525) rotate(0 390.99867224778654 10.956371822827236)"><path d="M754.52 8.77 C763.75 10.96, 770.4 16.07, 780.97 20.69 M753.78 10.29 C765.15 14.14, 774 18.3, 781.43 20.54" stroke="#000000" stroke-width="4" fill="none"></path></g></g><g stroke-linecap="round"><g transform="translate(2934.19739785754 587.4509803921571) rotate(0 159.3530391356412 155.23342710497343)"><path d="M-1.07 0.28 C51.99 51.99, 264.09 258.08, 317.39 309.56 M0.57 -0.61 C54.11 51.36, 266.82 259.27, 319.78 311.08" stroke="#000000" stroke-width="4" fill="none"></path></g><g transform="translate(2934.19739785754 587.4509803921571) rotate(0 159.3530391356412 155.23342710497343)"><path d="M292.92 297.69 C298.31 302.87, 303.65 304.31, 318.34 311.28 M293.29 298.2 C300.45 302.74, 307.62 305.52, 320.52 311.48" stroke="#000000" stroke-width="4" fill="none"></path></g><g transform="translate(2934.19739785754 587.4509803921571) rotate(0 159.3530391356412 155.23342710497343)"><path d="M307.26 283.02 C309.43 291.27, 311.63 295.93, 318.34 311.28 M307.64 283.52 C310.86 291.85, 314.22 298.53, 320.52 311.48" stroke="#000000" stroke-width="4" fill="none"></path></g></g><g stroke-linecap="round"><g transform="translate(2934.259873169833 1762.8980786588481) rotate(0 152.7850829483191 -312.06042511496)"><path d="M-1.03 0.11 C49.53 -103.78, 253.25 -518.62, 304.21 -622.22 M0.64 -0.88 C51.51 -104.64, 256.04 -520.48, 306.6 -624.23" stroke="#000000" stroke-width="4" fill="none"></path></g><g transform="translate(2934.259873169833 1762.8980786588481) rotate(0 152.7850829483191 -312.06042511496)"><path d="M303.59 -595.44 C304.7 -605.68, 307.05 -615.27, 306.84 -622.53 M303.48 -594.16 C303.85 -602.95, 306.36 -612.22, 305.78 -624.19" stroke="#000000" stroke-width="4" fill="none"></path></g><g transform="translate(2934.259873169833 1762.8980786588481) rotate(0 152.7850829483191 -312.06042511496)"><path d="M285.16 -604.47 C293.26 -611.17, 302.52 -617.37, 306.84 -622.53 M285.05 -603.19 C291.08 -609.15, 299.25 -615.64, 305.78 -624.19" stroke="#000000" stroke-width="4" fill="none"></path></g></g><g stroke-linecap="round"><g transform="translate(3028.3333333333353 1206.067846893251) rotate(0 78.263141955003 -37.33120504059366)"><path d="M-0.05 -1.06 C25.76 -13.28, 129.7 -61.94, 155.83 -74.1 M-1.54 1 C24.57 -11.47, 131.83 -62.88, 158.06 -75.67" stroke="#000000" stroke-width="4" fill="none"></path></g><g transform="translate(3028.3333333333353 1206.067846893251) rotate(0 78.263141955003 -37.33120504059366)"><path d="M135.37 -55.68 C146.97 -62.4, 155.08 -72.37, 159.02 -75.82 M137.7 -54.23 C141.75 -58.74, 146.33 -62.94, 157.87 -76.01" stroke="#000000" stroke-width="4" fill="none"></path></g><g transform="translate(3028.3333333333353 1206.067846893251) rotate(0 78.263141955003 -37.33120504059366)"><path d="M126.45 -74.16 C141.32 -73.87, 152.81 -76.83, 159.02 -75.82 M128.78 -72.71 C134.7 -73.41, 141.1 -73.83, 157.87 -76.01" stroke="#000000" stroke-width="4" fill="none"></path></g></g><g transform="translate(4523.90030118629 1337.8776590764026) rotate(0 87.67259819288256 22.694541766549946)"><text x="0" y="36.389083533099935" font-family="Cascadia, Segoe UI Emoji" font-size="37.29361787195782px" fill="#000000" text-anchor="start" style="white-space: pre;" direction="ltr">Logstash</text></g><g transform="translate(4481.900178253123 1593.3235992079415) rotate(0 142.37838834593458 22.694541766549946)"><text x="0" y="36.389083533099935" font-family="Cascadia, Segoe UI Emoji" font-size="37.293617871957814px" fill="#000000" text-anchor="start" style="white-space: pre;" direction="ltr">Elasticsearch</text></g><g stroke-linecap="round" transform="translate(4449.5 945.9509803921562) rotate(0 138.33333333333348 63.333333333333485)"><path d="M31.67 0 M31.67 0 C101.89 0.43, 172.84 2.59, 245 0 M31.67 0 C96.58 -0.46, 162.23 -0.29, 245 0 M245 0 C264.11 -1.14, 275.59 10.87, 276.67 31.67 M245 0 C267.39 1.32, 278.53 10.1, 276.67 31.67 M276.67 31.67 C278.5 46.18, 278.5 65.34, 276.67 95 M276.67 31.67 C277 52.4, 276.75 73.05, 276.67 95 M276.67 95 C277.5 114.97, 264.66 126.76, 245 126.67 M276.67 95 C278.36 114.1, 268.15 126.1, 245 126.67 M245 126.67 C175.52 128.06, 102.76 126.92, 31.67 126.67 M245 126.67 C197.83 125.69, 149.94 124.66, 31.67 126.67 M31.67 126.67 C11.39 127.83, -1.81 114.74, 0 95 M31.67 126.67 C9.95 127.56, -1.77 114.16, 0 95 M0 95 C0.56 78.02, 1.42 60.24, 0 31.67 M0 95 C-0.54 81.78, 0.79 67.81, 0 31.67 M0 31.67 C1.36 8.79, 10.59 1.86, 31.67 0 M0 31.67 C1.13 10.97, 10.54 -0.57, 31.67 0" stroke="#000000" stroke-width="4" fill="none"></path></g><g transform="translate(4526.666666666668 982.6176470588232) rotate(0 74.5 22)"><text x="74.5" y="35" font-family="Cascadia, Segoe UI Emoji" font-size="36px" fill="#000000" text-anchor="middle" style="white-space: pre;" direction="ltr">Brokers</text></g><g stroke-linecap="round" transform="translate(1053.6666666666674 512.6176470588236) rotate(0 146.05072463768101 120.83333333333331)"><path d="M60.42 0 M60.42 0 C102.57 1.16, 140.16 -0.45, 231.68 0 M60.42 0 C95.26 0.49, 131.11 0.36, 231.68 0 M231.68 0 C273.2 1.44, 290.23 21.29, 292.1 60.42 M231.68 0 C270.23 0.47, 294.2 19.67, 292.1 60.42 M292.1 60.42 C291.89 83.96, 292.96 108.7, 292.1 181.25 M292.1 60.42 C292.75 92.06, 292.42 125.22, 292.1 181.25 M292.1 181.25 C292.41 219.94, 270 239.83, 231.68 241.67 M292.1 181.25 C291.7 223.1, 272.02 241.82, 231.68 241.67 M231.68 241.67 C179.58 241.89, 129.66 244.58, 60.42 241.67 M231.68 241.67 C169.33 241.11, 107 241.34, 60.42 241.67 M60.42 241.67 C21.36 239.96, 1.78 220.5, 0 181.25 M60.42 241.67 C20.36 239.97, 1.38 223.01, 0 181.25 M0 181.25 C0.1 140.08, 0.08 101.27, 0 60.42 M0 181.25 C-0.57 147.93, -1.91 117.12, 0 60.42 M0 60.42 C1.38 19.49, 20.01 1.12, 60.42 0 M0 60.42 C0.63 21.09, 18.33 1.89, 60.42 0" stroke="#000000" stroke-width="4" fill="none"></path></g><g stroke-linecap="round" transform="translate(1081.2028985507313 87.6901108269401) rotate(0 134.4927536231885 115.57971014492746)"><path d="M57.79 0 M57.79 0 C95.27 -0.74, 134.6 -1.4, 211.2 0 M57.79 0 C114.4 0.3, 172.79 1.9, 211.2 0 M211.2 0 C249.77 0.13, 268.88 18.32, 268.99 57.79 M211.2 0 C251.48 -1.87, 267.74 18.03, 268.99 57.79 M268.99 57.79 C268.61 102.15, 270.57 146.56, 268.99 173.37 M268.99 57.79 C270.58 99.32, 269.79 141.13, 268.99 173.37 M268.99 173.37 C270.19 213.19, 250.33 230.99, 211.2 231.16 M268.99 173.37 C268.07 211.9, 248.28 231.13, 211.2 231.16 M211.2 231.16 C164.61 233.83, 119.72 231.14, 57.79 231.16 M211.2 231.16 C156.03 231.22, 101.26 231.08, 57.79 231.16 M57.79 231.16 C17.69 232.81, -1.12 212.54, 0 173.37 M57.79 231.16 C21.12 231.01, -1.63 211.2, 0 173.37 M0 173.37 C-2.08 126.42, 0.98 82.88, 0 57.79 M0 173.37 C-0.29 135.52, -0.66 99.16, 0 57.79 M0 57.79 C-1.56 21.22, 19.19 -1.87, 57.79 0 M0 57.79 C1.45 17.73, 20.46 0.11, 57.79 0" stroke="#000000" stroke-width="4" fill="none"></path></g><g transform="translate(1097.7971014492746 608.2335890878092) rotate(0 105.30171277997374 21.855072463768124)"><text x="0" y="34.71014492753623" font-family="Cascadia, Segoe UI Emoji" font-size="35.76284584980238px" fill="#000000" text-anchor="start" style="white-space: pre;" direction="ltr">Prometheus</text></g><g transform="translate(1110.3939393939468 177.2118499573735) rotate(0 73.55072463768101 21.644927536231876)"><text x="0" y="34.289855072463766" font-family="Cascadia, Segoe UI Emoji" font-size="35.76284584980235px" fill="#000000" text-anchor="start" style="white-space: pre;" direction="ltr">Grafana</text></g><g stroke-linecap="round"><g transform="translate(1199.2564324625637 510.157005392002) rotate(0 2.008646703807244 -92.60420280321293)"><path d="M-0.62 -0.24 C0.07 -30.84, 3.88 -152.46, 4.64 -182.99 M1.26 -1.42 C1.74 -32.44, 2.82 -154.84, 3.69 -184.96" stroke="#000000" stroke-width="4" fill="none"></path></g><g transform="translate(1199.2564324625637 510.157005392002) rotate(0 2.008646703807244 -92.60420280321293)"><path d="M13.05 -156.61 C10.43 -167.58, 6.41 -174.8, 1.71 -186.53 M12.93 -157.52 C9.67 -166.47, 6.7 -175.57, 3.84 -184.84" stroke="#000000" stroke-width="4" fill="none"></path></g><g transform="translate(1199.2564324625637 510.157005392002) rotate(0 2.008646703807244 -92.60420280321293)"><path d="M-7.47 -156.96 C-3.05 -167.71, -0.04 -174.81, 1.71 -186.53 M-7.59 -157.88 C-3.78 -166.55, 0.32 -175.53, 3.84 -184.84" stroke="#000000" stroke-width="4" fill="none"></path></g></g><g stroke-linecap="round" transform="translate(4453.666666666668 1264.2843137254913) rotate(0 159.1118077324977 71.52821316614438)"><path d="M35.76 0 M35.76 0 C123.01 0.34, 212.93 -1.05, 282.46 0 M35.76 0 C105.14 0.93, 174.84 2.03, 282.46 0 M282.46 0 C304.68 1.94, 317.58 13.11, 318.22 35.76 M282.46 0 C306.58 1.18, 315.97 10.9, 318.22 35.76 M318.22 35.76 C316.44 60.28, 316.82 84.98, 318.22 107.29 M318.22 35.76 C318.14 62.29, 318.34 89.27, 318.22 107.29 M318.22 107.29 C316.48 132.78, 305.18 142.67, 282.46 143.06 M318.22 107.29 C316.72 131.21, 304.62 144.47, 282.46 143.06 M282.46 143.06 C207.63 144.62, 129.83 144.82, 35.76 143.06 M282.46 143.06 C205.45 143.96, 128.74 143.58, 35.76 143.06 M35.76 143.06 C10.66 143.49, -0.14 129.67, 0 107.29 M35.76 143.06 C12.3 144.91, 1.56 132.2, 0 107.29 M0 107.29 C-1.11 84.32, 2.34 59.35, 0 35.76 M0 107.29 C0.41 92.11, 1.64 77.93, 0 35.76 M0 35.76 C1.25 11.52, 10.03 0.02, 35.76 0 M0 35.76 C-0.58 11.17, 13.75 0.32, 35.76 0" stroke="#000000" stroke-width="4" fill="none"></path></g><g stroke-linecap="round" transform="translate(4453.666666666668 1543.4248570901716) rotate(0 162.4451410658312 63.19487983281124)"><path d="M31.6 0 M31.6 0 C86.88 -1.1, 142.03 1.43, 293.29 0 M31.6 0 C94.3 -0.99, 157.35 -1.56, 293.29 0 M293.29 0 C316.15 0.59, 323.53 12.46, 324.89 31.6 M293.29 0 C315.52 -0.03, 324.42 9.26, 324.89 31.6 M324.89 31.6 C323.83 46.4, 325.83 60.79, 324.89 94.79 M324.89 31.6 C324.93 49.99, 324.66 66.25, 324.89 94.79 M324.89 94.79 C324.02 115, 312.74 126.32, 293.29 126.39 M324.89 94.79 C326.25 116.62, 313.09 125.47, 293.29 126.39 M293.29 126.39 C235.83 128.16, 176.14 127.85, 31.6 126.39 M293.29 126.39 C192.5 127.99, 90.54 127.08, 31.6 126.39 M31.6 126.39 C12.16 126.54, -1.78 114.27, 0 94.79 M31.6 126.39 C9.21 127.34, 0.19 115.18, 0 94.79 M0 94.79 C-0.95 68.6, -0.03 45.93, 0 31.6 M0 94.79 C0.46 80.28, 0.33 66.11, 0 31.6 M0 31.6 C-1.11 10.79, 10.54 -1.07, 31.6 0 M0 31.6 C0.37 12.57, 10.89 1.57, 31.6 0" stroke="#000000" stroke-width="4" fill="none"></path></g><g stroke-linecap="round" transform="translate(4457.501874731091 1809.7571454914234) rotate(0 162.4451410658312 61.528213166144496)"><path d="M30.76 0 M30.76 0 C110.83 2.32, 192.84 1.19, 294.13 0 M30.76 0 C135.63 -0.86, 241.22 0.16, 294.13 0 M294.13 0 C313.22 -0.47, 325.07 10.88, 324.89 30.76 M294.13 0 C314.54 0.43, 325.48 8.98, 324.89 30.76 M324.89 30.76 C325.22 51.79, 325.2 70.64, 324.89 92.29 M324.89 30.76 C325.27 53.6, 324.44 75.68, 324.89 92.29 M324.89 92.29 C323.01 114.58, 315.03 121.3, 294.13 123.06 M324.89 92.29 C323.13 110.91, 313.29 122.54, 294.13 123.06 M294.13 123.06 C231.05 121.21, 167.49 120.45, 30.76 123.06 M294.13 123.06 C223.24 125.3, 152.63 125.63, 30.76 123.06 M30.76 123.06 C10.02 121.86, -1.04 113.54, 0 92.29 M30.76 123.06 C11.74 123.82, -0.63 115, 0 92.29 M0 92.29 C-0.1 79.36, -0.74 67.38, 0 30.76 M0 92.29 C0.68 69.89, 1.01 48.74, 0 30.76 M0 30.76 C0.5 11.38, 9.59 -1.52, 30.76 0 M0 30.76 C-1 12.25, 9.36 -1.56, 30.76 0" stroke="#000000" stroke-width="4" fill="none"></path></g><g stroke-linecap="round"><g transform="translate(4599.559841547683 1411.364445610524) rotate(0 3.7494180157818846 66.1437249749282)"><path d="M-0.38 0.87 C0.69 22.54, 4.49 108.79, 5.67 130.68 M1.62 0.27 C3.13 22.07, 7.16 110.32, 7.88 132.01" stroke="#000000" stroke-width="4" fill="none"></path></g><g transform="translate(4599.559841547683 1411.364445610524) rotate(0 3.7494180157818846 66.1437249749282)"><path d="M-2.08 102.68 C-1.33 110.96, 3.86 116.68, 8.62 131.27 M-4.04 104.63 C1.41 115.19, 4.82 126.33, 7.05 132.46" stroke="#000000" stroke-width="4" fill="none"></path></g><g transform="translate(4599.559841547683 1411.364445610524) rotate(0 3.7494180157818846 66.1437249749282)"><path d="M18.42 101.84 C14.34 110.25, 14.7 116.17, 8.62 131.27 M16.46 103.79 C14.14 114.54, 9.77 126.01, 7.05 132.46" stroke="#000000" stroke-width="4" fill="none"></path></g></g><g transform="translate(4549.140973630843 1863.535312557622) rotate(0 65.69472616632902 22.694541766549946)"><text x="0" y="36.389083533099935" font-family="Cascadia, Segoe UI Emoji" font-size="37.29361787195781px" fill="#000000" text-anchor="start" style="white-space: pre;" direction="ltr">Kibana</text></g><g stroke-linecap="round" transform="translate(1061.6666666666656 2195.1176470588243) rotate(0 145 88.33333333333326)"><path d="M44.17 0 M44.17 0 C120.2 1.78, 198.25 0.33, 245.83 0 M44.17 0 C92.82 -1.14, 143.08 -0.24, 245.83 0 M245.83 0 C274.88 1.54, 291.21 14.38, 290 44.17 M245.83 0 C274.18 -0.5, 290.66 15.34, 290 44.17 M290 44.17 C291.71 68.73, 288.71 97.64, 290 132.5 M290 44.17 C290.1 78.66, 289.95 114.1, 290 132.5 M290 132.5 C290.48 160.54, 276.73 178.32, 245.83 176.67 M290 132.5 C292.25 163.41, 275.28 176.42, 245.83 176.67 M245.83 176.67 C196.03 177.76, 145.27 177.16, 44.17 176.67 M245.83 176.67 C193.07 178.67, 139.72 178.49, 44.17 176.67 M44.17 176.67 C13.61 176.32, 1.04 159.96, 0 132.5 M44.17 176.67 C16.13 174.83, -2.04 161.93, 0 132.5 M0 132.5 C-0.44 111.95, 2.13 88.37, 0 44.17 M0 132.5 C0.28 110.2, -0.58 87.16, 0 44.17 M0 44.17 C1.01 14.47, 15.63 1.7, 44.17 0 M0 44.17 C1.42 15.95, 14.55 -0.44, 44.17 0" stroke="#000000" stroke-width="4" fill="none"></path></g><g stroke-linecap="round"><g transform="translate(2250.8333333333317 1195.9509803921574) rotate(0 6.881860039894491 57.26092432696521)"><path d="M-0.96 -0.63 C1.11 18.38, 9.94 94.58, 12.45 113.52 M0.73 1.66 C3.18 20.94, 12.55 96.41, 14.73 115.15" stroke="#000000" stroke-width="4" fill="none"></path></g><g transform="translate(2250.8333333333317 1195.9509803921574) rotate(0 6.881860039894491 57.26092432696521)"><path d="M0.11 87 C5.43 97.95, 8.59 106.21, 13.9 115.56 M1.24 88.9 C7.07 98.01, 10.76 107.36, 15.61 115.96" stroke="#000000" stroke-width="4" fill="none"></path></g><g transform="translate(2250.8333333333317 1195.9509803921574) rotate(0 6.881860039894491 57.26092432696521)"><path d="M20.49 84.54 C19.65 96.06, 16.67 105.06, 13.9 115.56 M21.61 86.44 C20.13 96.56, 16.48 106.8, 15.61 115.96" stroke="#000000" stroke-width="4" fill="none"></path></g></g><g stroke-linecap="round"><g transform="translate(2377.4999999999986 829.2843137254906) rotate(0 64.76331682783939 -123.40356619126942)"><path d="M-0.59 0.37 C21.08 -40.74, 108.38 -204.45, 130.11 -245.61 M1.31 -0.48 C22.91 -41.39, 108.42 -206.39, 129.79 -247.18" stroke="#000000" stroke-width="4" fill="none"></path></g><g transform="translate(2377.4999999999986 829.2843137254906) rotate(0 64.76331682783939 -123.40356619126942)"><path d="M126.49 -215.46 C128.58 -225.2, 128.18 -235.8, 131.38 -248.68 M126.82 -218.01 C126.97 -224.51, 127.73 -233.02, 129.52 -246.62" stroke="#000000" stroke-width="4" fill="none"></path></g><g transform="translate(2377.4999999999986 829.2843137254906) rotate(0 64.76331682783939 -123.40356619126942)"><path d="M108.29 -224.94 C116.11 -231.65, 121.35 -239.31, 131.38 -248.68 M108.62 -227.49 C113.33 -231.67, 118.68 -237.79, 129.52 -246.62" stroke="#000000" stroke-width="4" fill="none"></path></g></g><g stroke-linecap="round"><g transform="translate(1397.4999999999977 1485.9509803921571) rotate(0 271.7166954461793 379.7518230261767)"><path d="M0.61 0.04 C91.27 126.6, 453.56 633.88, 543.96 760.49 M-0.52 -0.99 C89.99 125.7, 452.07 631.53, 543.07 758.5" stroke="#000000" stroke-width="4" fill="none"></path></g><g transform="translate(1397.4999999999977 1485.9509803921571) rotate(0 271.7166954461793 379.7518230261767)"><path d="M518.38 741.76 C526.34 745.18, 532.54 752.41, 541.15 757.13 M519.01 741.19 C525.41 745.77, 534.36 752.06, 542.35 757.92" stroke="#000000" stroke-width="4" fill="none"></path></g><g transform="translate(1397.4999999999977 1485.9509803921571) rotate(0 271.7166954461793 379.7518230261767)"><path d="M535.06 729.81 C538.1 736.91, 539.28 747.75, 541.15 757.13 M535.69 729.24 C536.89 737.7, 540.63 747.72, 542.35 757.92" stroke="#000000" stroke-width="4" fill="none"></path></g></g><g stroke-linecap="round"><g transform="translate(3722.4999999999977 1020.950980392157) rotate(0 143.0077846014483 0.05269578004237019)"><path d="M0.51 -0.92 C48.39 -1.25, 239.15 -1.24, 286.7 -0.9 M-0.68 1.21 C47.1 1.52, 237.61 0.48, 285.76 0.17" stroke="#000000" stroke-width="4" fill="none"></path></g><g transform="translate(3722.4999999999977 1020.950980392157) rotate(0 143.0077846014483 0.05269578004237019)"><path d="M256.1 10.64 C263.08 6.45, 273.5 6.71, 284.49 0.55 M258.51 10.51 C267.66 5.79, 277.72 3.46, 286.25 0.77" stroke="#000000" stroke-width="4" fill="none"></path></g><g transform="translate(3722.4999999999977 1020.950980392157) rotate(0 143.0077846014483 0.05269578004237019)"><path d="M255.98 -9.88 C263.18 -8.94, 273.63 -3.56, 284.49 0.55 M258.4 -10.01 C267.76 -7.08, 277.86 -1.76, 286.25 0.77" stroke="#000000" stroke-width="4" fill="none"></path></g></g><g stroke-linecap="round"><g transform="translate(3832.666666666664 1387.6176470588234) rotate(0 93.21056318892624 0.4342739442511174)"><path d="M0.81 -0.69 C31.97 -0.75, 155.89 -0.47, 186.64 -0.48 M-0.22 1.56 C30.83 1.67, 154.46 1.04, 185.77 0.8" stroke="#000000" stroke-width="4" fill="none"></path></g><g transform="translate(3832.666666666664 1387.6176470588234) rotate(0 93.21056318892624 0.4342739442511174)"><path d="M156.48 11.46 C164.51 6.26, 171.65 4.52, 187.44 -0.68 M156.82 11.22 C164.39 8.01, 170.68 5.79, 185.32 0.77" stroke="#000000" stroke-width="4" fill="none"></path></g><g transform="translate(3832.666666666664 1387.6176470588234) rotate(0 93.21056318892624 0.4342739442511174)"><path d="M156.36 -9.06 C164.39 -8.68, 171.57 -4.82, 187.44 -0.68 M156.7 -9.31 C164.49 -7.55, 170.82 -4.81, 185.32 0.77" stroke="#000000" stroke-width="4" fill="none"></path></g></g><g stroke-linecap="round"><g transform="translate(4229.166666666666 1037.6176470588239) rotate(0 101.85420407965421 -0.14447782146277177)"><path d="M0.53 1.05 C34.42 0.97, 168.38 0.67, 202.22 0.51 M-0.65 0.56 C33.69 0.03, 170.42 -1.49, 204.35 -1.34" stroke="#000000" stroke-width="4" fill="none"></path></g><g transform="translate(4229.166666666666 1037.6176470588239) rotate(0 101.85420407965421 -0.14447782146277177)"><path d="M177.96 7.2 C182.87 7.19, 188.08 6.3, 202.96 -2.11 M175.55 8.32 C186.34 4.77, 195.57 2.67, 203.36 -0.78" stroke="#000000" stroke-width="4" fill="none"></path></g><g transform="translate(4229.166666666666 1037.6176470588239) rotate(0 101.85420407965421 -0.14447782146277177)"><path d="M177.87 -13.32 C182.96 -9.04, 188.19 -5.64, 202.96 -2.11 M175.45 -12.2 C186.4 -8.73, 195.66 -3.8, 203.36 -0.78" stroke="#000000" stroke-width="4" fill="none"></path></g></g><g stroke-linecap="round"><g transform="translate(4603.092912214221 1671.5006292548624) rotate(0 3.441051613009222 65.9003149906589)"><path d="M-0.37 0.84 C0.85 22.61, 5.86 109.67, 7.25 131.57 M1.64 0.23 C2.74 21.57, 5.51 108.02, 6.53 129.72" stroke="#000000" stroke-width="4" fill="none"></path></g><g transform="translate(4603.092912214221 1671.5006292548624) rotate(0 3.441051613009222 65.9003149906589)"><path d="M-3.42 102.68 C-0.34 112.12, 4.07 116.52, 4.84 131.04 M-3.98 102.33 C-0.4 109.45, 1.55 118.16, 5.83 130.55" stroke="#000000" stroke-width="4" fill="none"></path></g><g transform="translate(4603.092912214221 1671.5006292548624) rotate(0 3.441051613009222 65.9003149906589)"><path d="M17.09 101.88 C14.07 111.5, 12.39 116.14, 4.84 131.04 M16.52 101.54 C13.99 109.01, 9.84 117.96, 5.83 130.55" stroke="#000000" stroke-width="4" fill="none"></path></g></g><g stroke-linecap="round"><g transform="translate(4227.420210986749 1351.8528206254427) rotate(0 106.62741686845538 -0.7343331987659667)"><path d="M-0.56 -0.87 C34.95 -0.94, 178.1 -0.7, 213.82 -1 M1.34 1.29 C36.6 0.93, 177.46 -2.24, 212.69 -2.76" stroke="#000000" stroke-width="4" fill="none"></path></g><g transform="translate(4227.420210986749 1351.8528206254427) rotate(0 106.62741686845538 -0.7343331987659667)"><path d="M183.26 7.48 C196.06 3.54, 203.44 1.83, 213.65 -4.05 M184.76 7.81 C191.58 5.84, 197.56 3.28, 212.97 -3.39" stroke="#000000" stroke-width="4" fill="none"></path></g><g transform="translate(4227.420210986749 1351.8528206254427) rotate(0 106.62741686845538 -0.7343331987659667)"><path d="M182.87 -13.04 C195.71 -9.54, 203.23 -3.81, 213.65 -4.05 M184.37 -12.71 C191.4 -9.65, 197.48 -7.18, 212.97 -3.39" stroke="#000000" stroke-width="4" fill="none"></path></g></g><g stroke-linecap="round"><g transform="translate(1606.5 633.9509803921571) rotate(0 -123.93153951722184 -0.22868608000374024)"><path d="M-0.26 -1.2 C-41.81 -1.43, -207.71 -0.76, -249.16 -0.52 M1.81 0.79 C-39.85 0.64, -207.83 0.59, -249.67 0.75" stroke="#000000" stroke-width="4" fill="none"></path></g><g transform="translate(1606.5 633.9509803921571) rotate(0 -123.93153951722184 -0.22868608000374024)"><path d="M-223.5 -8.16 C-231.17 -4.71, -238.77 -1.76, -248.47 -0.38 M-220.91 -9.02 C-230.6 -6.48, -239.22 -4.01, -249.72 1.24" stroke="#000000" stroke-width="4" fill="none"></path></g><g transform="translate(1606.5 633.9509803921571) rotate(0 -123.93153951722184 -0.22868608000374024)"><path d="M-223.47 12.36 C-231.3 9.34, -238.91 5.82, -248.47 -0.38 M-220.88 11.5 C-230.4 7.55, -239.03 3.53, -249.72 1.24" stroke="#000000" stroke-width="4" fill="none"></path></g></g><g stroke-linecap="round"><g transform="translate(1189.8333333333335 1117.2843137254904) rotate(0 -0.22579414444976464 -174.82914673415019)"><path d="M0.05 -0.69 C-0.24 -59.08, -1.02 -291.36, -1.16 -349.41 M-1.39 1.56 C-1.37 -57.27, 0.43 -292.5, 0.94 -351.22" stroke="#000000" stroke-width="4" fill="none"></path></g><g transform="translate(1189.8333333333335 1117.2843137254904) rotate(0 -0.22579414444976464 -174.82914673415019)"><path d="M9.82 -324.89 C8.28 -334.09, 5.54 -343.86, -0.56 -350.92 M10.01 -323.46 C7.75 -331.37, 4.09 -341.75, 0.93 -350.7" stroke="#000000" stroke-width="4" fill="none"></path></g><g transform="translate(1189.8333333333335 1117.2843137254904) rotate(0 -0.22579414444976464 -174.82914673415019)"><path d="M-10.7 -325.05 C-5.16 -334.21, -0.81 -343.92, -0.56 -350.92 M-10.51 -323.62 C-6.3 -331.42, -3.48 -341.74, 0.93 -350.7" stroke="#000000" stroke-width="4" fill="none"></path></g></g></svg>